<svg version="1.1" id="Layer_1" xmlns="http://www.w3.org/2000/svg" xmlns:xlink="http://www.w3.org/1999/xlink" x="0px" y="0px"
	  viewBox="75 75 50 50" enable-background="new 0 0 150 150" width="140px" height="100px" xml:space="preserve">
<path fill="#FFFFFF" opacity="1.000000" stroke="none" 
	d="
M244.000000,501.000000 
	C162.666687,501.000000 81.833374,501.000000 1.000043,501.000000 
	C1.000029,334.333405 1.000029,167.666779 1.000014,1.000133 
	C167.666565,1.000089 334.333130,1.000089 500.999756,1.000044 
	C500.999847,167.666519 500.999847,334.333038 500.999939,500.999786 
	C415.500000,501.000000 330.000000,501.000000 244.000000,501.000000 
M224.217499,164.009766 
	C220.885529,164.009521 217.540451,164.193375 214.225266,163.957352 
	C210.902573,163.720779 209.484818,164.883163 209.084763,168.301834 
	C206.589890,189.621246 203.879013,210.915268 201.311432,232.226334 
	C199.334885,248.631729 209.105255,259.414001 225.468948,259.011566 
	C239.438568,258.668030 250.828552,248.254562 252.898407,233.335876 
	C255.162048,217.020660 256.998291,200.646011 259.001312,184.294861 
	C259.802307,177.756363 260.551208,171.211502 261.401886,164.008255 
	C256.805817,164.008255 252.963821,164.420685 249.248306,163.911041 
	C243.753464,163.157318 242.567307,165.832718 242.057144,170.573914 
	C240.170242,188.110031 237.978958,205.614059 235.807220,223.118408 
	C235.234985,227.730560 234.739365,232.422867 233.440308,236.853104 
	C232.281555,240.804855 229.218063,243.436493 224.704269,242.550919 
	C220.407227,241.707886 219.486694,238.201279 219.774353,234.460785 
	C220.169601,229.321213 220.840240,224.200729 221.471237,219.081741 
	C223.568085,202.070786 225.703705,185.064590 227.813553,168.055222 
	C228.071594,165.974777 228.296906,163.863907 224.217499,164.009766 
M223.674469,326.984467 
	C223.914536,329.907349 224.154602,332.830261 224.415588,336.007996 
	C226.899521,336.007996 228.920837,335.753479 230.853638,336.058960 
	C235.413727,336.779755 237.181519,334.854858 238.129745,330.432556 
	C239.973694,321.832886 242.512634,313.382111 244.771942,304.871826 
	C245.216721,303.196442 245.698593,301.530914 246.163361,299.860870 
	C246.720047,299.941498 247.276749,300.022125 247.833450,300.102783 
	C247.833450,312.001312 247.833450,323.899872 247.833450,336.007996 
	C250.300186,336.007996 251.836472,335.763672 253.266022,336.050781 
	C259.092010,337.220886 261.153992,334.410095 262.677338,329.059418 
	C268.043213,310.211975 273.992279,291.530731 279.698029,272.779724 
	C280.153107,271.284271 280.439301,269.737427 280.816772,268.160980 
	C267.880768,266.714203 267.881348,266.714355 264.826996,278.603149 
	C264.124237,281.338715 263.433685,284.077576 262.706268,286.806580 
	C261.379944,291.782532 260.030212,296.752258 258.690277,301.724579 
	C258.064453,301.665039 257.438599,301.605499 256.812775,301.545959 
	C256.812775,290.338135 256.812775,279.130280 256.812775,268.061432 
	C244.750168,267.213226 244.768417,267.218109 242.037811,277.433167 
	C239.921616,285.349670 237.752426,293.252045 235.606812,301.160675 
	C235.027679,301.126221 234.448563,301.091766 233.869431,301.057312 
	C233.869431,290.081299 233.869431,279.105316 233.869431,268.045624 
	C228.433167,268.045624 224.189255,268.045624 219.466492,268.045624 
	C220.850952,287.604889 222.212341,306.838135 223.674469,326.984467 
M290.174896,240.989777 
	C289.347687,246.473999 288.520508,251.958237 287.610718,257.989929 
	C303.485382,257.989929 318.284241,258.030457 333.081482,257.894653 
	C334.022827,257.886017 335.624237,256.622650 335.772644,255.748474 
	C336.513947,251.381927 336.872345,246.950394 337.446045,241.820740 
	C327.912109,241.820740 319.050446,241.820740 309.242035,241.820740 
	C310.676422,239.218719 311.568665,237.503922 312.547241,235.839890 
	C322.674133,218.619781 332.747955,201.367859 342.987335,184.214828 
	C346.685699,178.019348 346.048370,171.254684 346.973907,164.021896 
	C331.530762,164.021896 316.742401,163.981903 301.955566,164.112808 
	C300.980042,164.121460 299.305359,165.315918 299.165436,166.159424 
	C298.422150,170.641174 298.065125,175.186981 297.512634,180.279175 
	C307.239258,180.279175 315.977448,180.279175 325.863464,180.279175 
	C313.759399,200.866776 302.163635,220.589798 290.174896,240.989777 
M161.718262,158.909256 
	C158.744934,158.892105 155.750793,158.638412 152.801758,158.897629 
	C137.815979,160.214951 124.415611,171.519226 120.366211,186.095856 
	C116.149765,201.273834 121.397499,217.822144 133.943146,226.568832 
	C138.604416,229.818604 140.983124,233.290161 140.166275,238.908981 
	C139.952820,240.377426 140.092010,241.904938 140.143372,243.402771 
	C140.460648,252.654373 147.621735,259.784393 156.764877,259.976410 
	C165.999176,260.170288 173.305984,253.463852 173.987228,244.117203 
	C174.132339,242.126282 174.346085,240.095306 174.116089,238.131042 
	C173.557358,233.359421 175.204910,230.292587 179.339966,227.399612 
	C192.232956,218.379395 197.896927,202.465866 194.184387,187.776260 
	C190.279160,172.324356 178.197586,161.327576 161.718262,158.909256 
M298.220764,283.955902 
	C298.885895,278.716431 299.551056,273.476959 300.246246,268.000763 
	C295.565338,268.000763 291.472656,268.000763 286.851318,268.000763 
	C284.088104,290.651825 281.347656,313.116364 278.600189,335.638367 
	C283.582275,335.638367 287.641449,335.638367 291.905823,335.638367 
	C293.086975,326.281067 294.225922,317.258209 295.368439,308.207001 
	C298.928101,308.207001 302.130524,308.207001 305.570099,308.207001 
	C304.477509,317.594543 303.431061,326.585388 302.334412,336.007874 
	C305.677429,336.007874 308.331116,335.800751 310.938782,336.058746 
	C314.430664,336.404205 315.836273,335.378143 316.225189,331.573547 
	C317.492981,319.172028 319.281067,306.824341 320.810608,294.448730 
	C321.886780,285.741943 322.867950,277.023407 323.957428,267.749420 
	C321.209564,267.749420 318.878448,268.020020 316.634003,267.693970 
	C311.715820,266.979462 310.009613,268.778442 309.760437,273.835205 
	C309.397705,281.197723 308.002502,288.509369 307.080353,295.590515 
	C303.261475,295.590515 300.199005,295.590515 296.913239,295.590515 
	C297.340637,291.763794 297.726959,288.304596 298.220764,283.955902 
M286.658997,201.204880 
	C288.099579,189.048050 289.540192,176.891220 291.066742,164.009109 
	C286.259003,164.009109 282.128998,164.268860 278.046997,163.937302 
	C273.819672,163.593979 272.365326,165.027481 271.883240,169.371750 
	C269.608490,189.870010 266.895111,210.319336 264.381805,230.791473 
	C263.296082,239.635101 262.315765,248.491653 261.210480,258.005768 
	C266.306763,258.005768 270.759949,257.835693 275.193085,258.061035 
	C278.577606,258.233032 279.765961,257.004272 280.154602,253.593124 
	C282.112885,236.406281 284.352264,219.251495 286.658997,201.204880 
M376.660522,294.221558 
	C377.754333,292.355164 378.754211,290.425598 379.959015,288.633850 
	C384.118103,282.448425 387.143372,275.952240 386.005524,267.746216 
	C377.727692,267.746216 369.427612,267.746185 361.127502,267.746185 
	C350.440674,267.746185 350.440674,267.746216 351.155518,279.698730 
	C357.425903,279.698730 363.759003,279.698730 370.828979,279.698730 
	C369.598755,281.991241 368.879211,283.443390 368.061646,284.838043 
	C360.993225,296.896118 353.605865,308.781799 346.990906,321.083099 
	C344.695526,325.351624 344.301575,330.642609 342.941803,335.838531 
	C355.489990,335.838531 366.619629,335.838531 378.283386,335.838531 
	C378.719635,332.045044 379.143372,328.360565 379.647980,323.972961 
	C372.662445,323.972961 366.319794,323.972961 359.165253,323.972961 
	C365.187347,313.697144 370.716949,304.261749 376.660522,294.221558 
M327.746246,336.009338 
	C328.745941,336.009430 329.769653,335.868225 330.741364,336.033173 
	C335.904968,336.909668 337.883240,335.138123 338.327332,329.563812 
	C339.291382,317.463562 341.253204,305.444275 342.740814,293.383728 
	C343.772705,285.017517 344.694122,276.637695 345.723083,267.761932 
	C341.695709,267.761932 338.208801,267.561249 334.772156,267.888428 
	C333.785522,267.982391 332.268402,269.513000 332.135651,270.533325 
	C329.430023,291.332336 326.854614,312.148804 324.438446,332.983276 
	C324.333740,333.886353 325.998383,334.994598 327.746246,336.009338 
z"/>
<path fill="#ED6947" opacity="1.000000" stroke="none" 
	d="
M224.680054,164.012512 
	C228.296906,163.863907 228.071594,165.974777 227.813553,168.055222 
	C225.703705,185.064590 223.568085,202.070786 221.471237,219.081741 
	C220.840240,224.200729 220.169601,229.321213 219.774353,234.460785 
	C219.486694,238.201279 220.407227,241.707886 224.704269,242.550919 
	C229.218063,243.436493 232.281555,240.804855 233.440308,236.853104 
	C234.739365,232.422867 235.234985,227.730560 235.807220,223.118408 
	C237.978958,205.614059 240.170242,188.110031 242.057144,170.573914 
	C242.567307,165.832718 243.753464,163.157318 249.248306,163.911041 
	C252.963821,164.420685 256.805817,164.008255 261.401886,164.008255 
	C260.551208,171.211502 259.802307,177.756363 259.001312,184.294861 
	C256.998291,200.646011 255.162048,217.020660 252.898407,233.335876 
	C250.828552,248.254562 239.438568,258.668030 225.468948,259.011566 
	C209.105255,259.414001 199.334885,248.631729 201.311432,232.226334 
	C203.879013,210.915268 206.589890,189.621246 209.084763,168.301834 
	C209.484818,164.883163 210.902573,163.720779 214.225266,163.957352 
	C217.540451,164.193375 220.885529,164.009521 224.680054,164.012512 
z"/>
<path fill="#495357" opacity="1.000000" stroke="none" 
	d="
M223.624100,326.527924 
	C222.212341,306.838135 220.850952,287.604889 219.466492,268.045624 
	C224.189255,268.045624 228.433167,268.045624 233.869431,268.045624 
	C233.869431,279.105316 233.869431,290.081299 233.869431,301.057312 
	C234.448563,301.091766 235.027679,301.126221 235.606812,301.160675 
	C237.752426,293.252045 239.921616,285.349670 242.037811,277.433167 
	C244.768417,267.218109 244.750168,267.213226 256.812775,268.061432 
	C256.812775,279.130280 256.812775,290.338135 256.812775,301.545959 
	C257.438599,301.605499 258.064453,301.665039 258.690277,301.724579 
	C260.030212,296.752258 261.379944,291.782532 262.706268,286.806580 
	C263.433685,284.077576 264.124237,281.338715 264.826996,278.603149 
	C267.881348,266.714355 267.880768,266.714203 280.816772,268.160980 
	C280.439301,269.737427 280.153107,271.284271 279.698029,272.779724 
	C273.992279,291.530731 268.043213,310.211975 262.677338,329.059418 
	C261.153992,334.410095 259.092010,337.220886 253.266022,336.050781 
	C251.836472,335.763672 250.300186,336.007996 247.833450,336.007996 
	C247.833450,323.899872 247.833450,312.001312 247.833450,300.102783 
	C247.276749,300.022125 246.720047,299.941498 246.163361,299.860870 
	C245.698593,301.530914 245.216721,303.196442 244.771942,304.871826 
	C242.512634,313.382111 239.973694,321.832886 238.129745,330.432556 
	C237.181519,334.854858 235.413727,336.779755 230.853638,336.058960 
	C228.920837,335.753479 226.899521,336.007996 224.415588,336.007996 
	C224.154602,332.830261 223.914536,329.907349 223.624100,326.527924 
z"/>
<path fill="#ED6946" opacity="1.000000" stroke="none" 
	d="
M290.371399,240.651306 
	C302.163635,220.589798 313.759399,200.866776 325.863464,180.279175 
	C315.977448,180.279175 307.239258,180.279175 297.512634,180.279175 
	C298.065125,175.186981 298.422150,170.641174 299.165436,166.159424 
	C299.305359,165.315918 300.980042,164.121460 301.955566,164.112808 
	C316.742401,163.981903 331.530762,164.021896 346.973907,164.021896 
	C346.048370,171.254684 346.685699,178.019348 342.987335,184.214828 
	C332.747955,201.367859 322.674133,218.619781 312.547241,235.839890 
	C311.568665,237.503922 310.676422,239.218719 309.242035,241.820740 
	C319.050446,241.820740 327.912109,241.820740 337.446045,241.820740 
	C336.872345,246.950394 336.513947,251.381927 335.772644,255.748474 
	C335.624237,256.622650 334.022827,257.886017 333.081482,257.894653 
	C318.284241,258.030457 303.485382,257.989929 287.610718,257.989929 
	C288.520508,251.958237 289.347687,246.473999 290.371399,240.651306 
z"/>
<path fill="#ED6B48" opacity="1.000000" stroke="none" 
	d="
M162.141113,158.952133 
	C178.197586,161.327576 190.279160,172.324356 194.184387,187.776260 
	C197.896927,202.465866 192.232956,218.379395 179.339966,227.399612 
	C175.204910,230.292587 173.557358,233.359421 174.116089,238.131042 
	C174.346085,240.095306 174.132339,242.126282 173.987228,244.117203 
	C173.305984,253.463852 165.999176,260.170288 156.764877,259.976410 
	C147.621735,259.784393 140.460648,252.654373 140.143372,243.402771 
	C140.092010,241.904938 139.952820,240.377426 140.166275,238.908981 
	C140.983124,233.290161 138.604416,229.818604 133.943146,226.568832 
	C121.397499,217.822144 116.149765,201.273834 120.366211,186.095856 
	C124.415611,171.519226 137.815979,160.214951 152.801758,158.897629 
	C155.750793,158.638412 158.744934,158.892105 162.141113,158.952133 
M134.847366,177.398987 
	C123.838730,189.803757 125.788208,208.767975 137.563705,218.478088 
	C143.001984,222.962524 149.029312,226.552170 148.921097,234.846130 
	C153.816559,234.846130 158.144852,235.030731 162.438644,234.727142 
	C163.636780,234.642441 165.664490,233.173080 165.721893,232.240997 
	C166.048050,226.945389 169.182526,223.903519 173.249542,221.231186 
	C182.130203,215.395920 186.917496,206.818497 186.642090,196.445496 
	C186.301132,183.603683 179.949081,173.833008 167.626755,169.155548 
	C155.345688,164.493774 144.500870,167.592514 134.847366,177.398987 
M161.246399,243.002487 
	C157.282501,243.002487 153.318604,243.002487 148.970245,243.002487 
	C149.113663,247.603897 151.171509,250.213196 155.217834,251.009506 
	C159.359818,251.824646 162.822983,250.576859 164.698730,246.528625 
	C165.803299,244.144745 165.102646,242.679626 161.246399,243.002487 
z"/>
<path fill="#495357" opacity="1.000000" stroke="none" 
	d="
M298.167053,284.400635 
	C297.726959,288.304596 297.340637,291.763794 296.913239,295.590515 
	C300.199005,295.590515 303.261475,295.590515 307.080353,295.590515 
	C308.002502,288.509369 309.397705,281.197723 309.760437,273.835205 
	C310.009613,268.778442 311.715820,266.979462 316.634003,267.693970 
	C318.878448,268.020020 321.209564,267.749420 323.957428,267.749420 
	C322.867950,277.023407 321.886780,285.741943 320.810608,294.448730 
	C319.281067,306.824341 317.492981,319.172028 316.225189,331.573547 
	C315.836273,335.378143 314.430664,336.404205 310.938782,336.058746 
	C308.331116,335.800751 305.677429,336.007874 302.334412,336.007874 
	C303.431061,326.585388 304.477509,317.594543 305.570099,308.207001 
	C302.130524,308.207001 298.928101,308.207001 295.368439,308.207001 
	C294.225922,317.258209 293.086975,326.281067 291.905823,335.638367 
	C287.641449,335.638367 283.582275,335.638367 278.600189,335.638367 
	C281.347656,313.116364 284.088104,290.651825 286.851318,268.000763 
	C291.472656,268.000763 295.565338,268.000763 300.246246,268.000763 
	C299.551056,273.476959 298.885895,278.716431 298.167053,284.400635 
z"/>
<path fill="#ED6947" opacity="1.000000" stroke="none" 
	d="
M286.575989,201.645172 
	C284.352264,219.251495 282.112885,236.406281 280.154602,253.593124 
	C279.765961,257.004272 278.577606,258.233032 275.193085,258.061035 
	C270.759949,257.835693 266.306763,258.005768 261.210480,258.005768 
	C262.315765,248.491653 263.296082,239.635101 264.381805,230.791473 
	C266.895111,210.319336 269.608490,189.870010 271.883240,169.371750 
	C272.365326,165.027481 273.819672,163.593979 278.046997,163.937302 
	C282.128998,164.268860 286.259003,164.009109 291.066742,164.009109 
	C289.540192,176.891220 288.099579,189.048050 286.575989,201.645172 
z"/>
<path fill="#4A5458" opacity="1.000000" stroke="none" 
	d="
M376.453552,294.523926 
	C370.716949,304.261749 365.187347,313.697144 359.165253,323.972961 
	C366.319794,323.972961 372.662445,323.972961 379.647980,323.972961 
	C379.143372,328.360565 378.719635,332.045044 378.283386,335.838531 
	C366.619629,335.838531 355.489990,335.838531 342.941803,335.838531 
	C344.301575,330.642609 344.695526,325.351624 346.990906,321.083099 
	C353.605865,308.781799 360.993225,296.896118 368.061646,284.838043 
	C368.879211,283.443390 369.598755,281.991241 370.828979,279.698730 
	C363.759003,279.698730 357.425903,279.698730 351.155518,279.698730 
	C350.440674,267.746216 350.440674,267.746185 361.127502,267.746185 
	C369.427612,267.746185 377.727692,267.746216 386.005524,267.746216 
	C387.143372,275.952240 384.118103,282.448425 379.959015,288.633850 
	C378.754211,290.425598 377.754333,292.355164 376.453552,294.523926 
z"/>
<path fill="#4A5457" opacity="1.000000" stroke="none" 
	d="
M327.292542,336.008301 
	C325.998383,334.994598 324.333740,333.886353 324.438446,332.983276 
	C326.854614,312.148804 329.430023,291.332336 332.135651,270.533325 
	C332.268402,269.513000 333.785522,267.982391 334.772156,267.888428 
	C338.208801,267.561249 341.695709,267.761932 345.723083,267.761932 
	C344.694122,276.637695 343.772705,285.017517 342.740814,293.383728 
	C341.253204,305.444275 339.291382,317.463562 338.327332,329.563812 
	C337.883240,335.138123 335.904968,336.909668 330.741364,336.033173 
	C329.769653,335.868225 328.745941,336.009430 327.292542,336.008301 
z"/>
<path fill="#FEFCFC" opacity="1.000000" stroke="none" 
	d="
M135.097748,177.142212 
	C144.500870,167.592514 155.345688,164.493774 167.626755,169.155548 
	C179.949081,173.833008 186.301132,183.603683 186.642090,196.445496 
	C186.917496,206.818497 182.130203,215.395920 173.249542,221.231186 
	C169.182526,223.903519 166.048050,226.945389 165.721893,232.240997 
	C165.664490,233.173080 163.636780,234.642441 162.438644,234.727142 
	C158.144852,235.030731 153.816559,234.846130 148.921097,234.846130 
	C149.029312,226.552170 143.001984,222.962524 137.563705,218.478088 
	C125.788208,208.767975 123.838730,189.803757 135.097748,177.142212 
M153.997803,222.484695 
	C154.208481,222.748993 154.481125,222.857849 155.443253,223.179092 
	C157.459015,222.409683 160.418716,222.158539 161.210220,220.716934 
	C161.921936,219.420685 160.253784,216.817780 159.237228,214.296021 
	C157.986572,213.803375 156.735901,213.310730 155.910446,212.147202 
	C157.779465,211.317673 160.155716,210.947906 161.411469,209.562485 
	C163.992828,206.714569 165.756607,203.139008 168.246490,200.192123 
	C174.300644,193.026779 172.622009,184.686798 163.638275,180.292908 
	C154.547119,176.882843 145.375687,181.026215 142.665955,189.742783 
	C141.893295,192.228287 141.680542,194.399155 145.013077,194.981293 
	C145.013077,194.981293 144.982208,194.976471 145.059464,195.495789 
	C145.372437,195.625000 145.685410,195.754211 146.598846,196.294418 
	C150.272903,197.839645 152.112457,195.977005 153.297226,192.754410 
	C154.405106,189.740875 156.160004,187.543640 159.898773,188.884613 
	C158.895111,191.533676 158.103363,194.289627 156.834595,196.804977 
	C155.217041,200.011795 152.854080,202.886841 151.589691,206.201401 
	C151.195312,207.235291 153.320648,209.230377 154.747055,211.209961 
	C155.011276,211.746399 155.275497,212.282837 154.750504,212.890381 
	C153.288422,214.630783 151.334991,216.193146 150.607864,218.199875 
	C150.319992,218.994308 152.757935,220.776459 153.979446,222.036133 
	C153.979446,222.036133 153.902710,222.032516 153.997803,222.484695 
z"/>
<path fill="#FEFCFC" opacity="1.000000" stroke="none" 
	d="
M161.708191,243.003174 
	C165.102646,242.679626 165.803299,244.144745 164.698730,246.528625 
	C162.822983,250.576859 159.359818,251.824646 155.217834,251.009506 
	C151.171509,250.213196 149.113663,247.603897 148.970245,243.002487 
	C153.318604,243.002487 157.282501,243.002487 161.708191,243.003174 
z"/>
<path fill="#4E5659" opacity="1.000000" stroke="none" 
	d="
M164.151520,180.872650 
	C172.622009,184.686798 174.300644,193.026779 168.246490,200.192123 
	C165.756607,203.139008 163.992828,206.714569 161.411469,209.562485 
	C160.155716,210.947906 157.779465,211.317673 155.710968,212.502853 
	C155.511475,212.858505 155.539719,212.819260 155.539703,212.819260 
	C155.275497,212.282837 155.011276,211.746399 154.514465,210.635071 
	C156.460907,205.972733 158.249695,201.606262 160.920654,197.870499 
	C164.053116,193.489227 164.019073,190.103485 159.834671,188.073364 
	C156.160004,187.543640 154.405106,189.740875 153.297226,192.754410 
	C152.112457,195.977005 150.272903,197.839645 146.222046,195.843231 
	C145.557571,195.253540 145.269882,195.115005 144.982208,194.976471 
	C144.982208,194.976471 145.013077,194.981293 145.106598,194.636230 
	C147.804611,184.267456 152.368820,181.035782 164.151520,180.872650 
z"/>
<path fill="#E27457" opacity="1.000000" stroke="none" 
	d="
M163.894897,180.582779 
	C152.368820,181.035782 147.804611,184.267456 145.112793,194.650574 
	C141.680542,194.399155 141.893295,192.228287 142.665955,189.742783 
	C145.375687,181.026215 154.547119,176.882843 163.894897,180.582779 
z"/>
<path fill="#E67051" opacity="1.000000" stroke="none" 
	d="
M159.866730,188.478989 
	C164.019073,190.103485 164.053116,193.489227 160.920654,197.870499 
	C158.249695,201.606262 156.460907,205.972733 154.287201,210.422821 
	C153.320648,209.230377 151.195312,207.235291 151.589691,206.201401 
	C152.854080,202.886841 155.217041,200.011795 156.834595,196.804977 
	C158.103363,194.289627 158.895111,191.533676 159.866730,188.478989 
z"/>
<path fill="#4E5659" opacity="1.000000" stroke="none" 
	d="
M159.635391,214.791229 
	C160.253784,216.817780 161.921936,219.420685 161.210220,220.716934 
	C160.418716,222.158539 157.459015,222.409683 155.056091,222.792786 
	C154.469742,222.166840 154.214340,222.042191 153.902710,222.032516 
	C153.902710,222.032516 153.979446,222.036133 153.957870,221.654449 
	C153.501205,217.059296 155.152588,214.680450 159.635391,214.791229 
z"/>
<path fill="#E3785C" opacity="1.000000" stroke="none" 
	d="
M159.436310,214.543625 
	C155.152588,214.680450 153.501205,217.059296 153.945541,221.690826 
	C152.757935,220.776459 150.319992,218.994308 150.607864,218.199875 
	C151.334991,216.193146 153.288422,214.630783 155.145111,212.854828 
	C155.539719,212.819260 155.511475,212.858505 155.498352,212.838287 
	C156.735901,213.310730 157.986572,213.803375 159.436310,214.543625 
z"/>
<path fill="#E27457" opacity="1.000000" stroke="none" 
	d="
M145.020844,195.236130 
	C145.269882,195.115005 145.557571,195.253540 145.921814,195.637741 
	C145.685410,195.754211 145.372437,195.625000 145.020844,195.236130 
z"/>
<path fill="#E3785C" opacity="1.000000" stroke="none" 
	d="
M153.950256,222.258606 
	C154.214340,222.042191 154.469742,222.166840 154.742310,222.608856 
	C154.481125,222.857849 154.208481,222.748993 153.950256,222.258606 
z"/>
</svg>