<svg xmlns="http://www.w3.org/2000/svg" version="1.1" xmlns:xlink="http://www.w3.org/1999/xlink" xmlns:svgjs="http://svgjs.dev/svgjs" width="1440" height="560" preserveAspectRatio="none" viewBox="0 0 1440 560">
    <g mask="url(&quot;#SvgjsMask1008&quot;)" fill="none">
        <rect width="1440" height="560" x="0" y="0" fill="#0e2a47"></rect>
        <path d="M389.14 515.79a7.66 7.66 0 1 0 7.81-13.18z" fill="#037b0b"></path>
        <path d="M979.02 478.96 a38.42 38.42 0 1 0 76.84 0 a38.42 38.42 0 1 0 -76.84 0z" stroke="#e73635"></path>
        <path d="M155.18 197.56 a5.24 5.24 0 1 0 10.48 0 a5.24 5.24 0 1 0 -10.48 0z" fill="#d3b714"></path>
        <path d="M572.66 548.02L591.65 548.02L591.65 599.79L572.66 599.79z" fill="#037b0b"></path>
        <path d="M363.92 366.53a34.75 34.75 0 1 0-48.57 49.72z" stroke="#d3b714"></path>
        <path d="M312.01 322.64L359.52 322.64L359.52 330.38L312.01 330.38z" fill="#d3b714"></path>
        <path d="M334.63 223.13a3.67 3.67 0 1 0-2.31 6.97z" fill="#d3b714"></path>
        <path d="M1081.75 402.42L1108.03 402.42L1108.03 454.66L1081.75 454.66z" stroke="#d3b714"></path>
        <path d="M1006.66 391.13a34.55 34.55 0 1 0-51.03-46.59z" fill="#037b0b"></path>
        <path d="M614.87 361.11 a34.76 34.76 0 1 0 69.52 0 a34.76 34.76 0 1 0 -69.52 0z" fill="#037b0b"></path>
        <path d="M208.75 221.16L260.33 221.16L260.33 265.62L208.75 265.62z" stroke="#037b0b"></path>
        <path d="M1195.39 228.24L1220.18 228.24L1220.18 237.75L1195.39 237.75z" stroke="#d3b714"></path>
        <path d="M191.3 114.95L247.16 114.95L247.16 170.81L191.3 170.81z" fill="#d3b714"></path>
        <path d="M1327.03 121.05L1368.59 121.05L1368.59 169.24L1327.03 169.24z" stroke="#e73635"></path>
        <path d="M671.1 36.16a16.2 16.2 0 1 0 20.95 24.71z" fill="#e73635"></path>
        <path d="M254.69 131.24 a10.32 10.32 0 1 0 20.64 0 a10.32 10.32 0 1 0 -20.64 0z" fill="#d3b714"></path>
        <path d="M988.39 390.26L1007.09 390.26L1007.09 396.1L988.39 396.1z" fill="#037b0b"></path>
        <path d="M795.39 208.72a36.62 36.62 0 1 0-72.28 11.81z" stroke="#037b0b"></path>
        <path d="M-18.88 369.24 a41.29 41.29 0 1 0 82.58 0 a41.29 41.29 0 1 0 -82.58 0z" fill="#d3b714"></path>
        <path d="M500.88 352.15a42.23 42.23 0 1 0 84.31-5.02z" fill="#e73635"></path>
        <path d="M1054.48 260.56a38.23 38.23 0 1 0 74.2 18.48z" fill="#d3b714"></path>
        <path d="M490.06 173.06L513.65 173.06L513.65 197.65L490.06 197.65z" stroke="#e73635"></path>
        <path d="M211.19 66.3L228.77 66.3L228.77 83.88L211.19 83.88z" fill="#037b0b"></path>
        <path d="M1363.65 247.62 a23.14 23.14 0 1 0 46.28 0 a23.14 23.14 0 1 0 -46.28 0z" fill="#e73635"></path>
        <path d="M808.16 303.68L857.45 303.68L857.45 308.8L808.16 308.8z" stroke="#d3b714"></path>
        <path d="M245.56 436.35L284.64 436.35L284.64 475.43L245.56 475.43z" stroke="#e73635"></path>
        <path d="M256.17 521.29L310.57 521.29L310.57 541.09L256.17 541.09z" stroke="#037b0b"></path>
        <path d="M668.82 39.72 a11.16 11.16 0 1 0 22.32 0 a11.16 11.16 0 1 0 -22.32 0z" stroke="#e73635"></path>
        <path d="M560.96 264.55L584.11 264.55L584.11 287.7L560.96 287.7z" stroke="#037b0b"></path>
        <path d="M690.1 103.16L713.68 103.16L713.68 126.74L690.1 126.74z" stroke="#d3b714"></path>
        <path d="M1009.04 310.04 a45.51 45.51 0 1 0 91.02 0 a45.51 45.51 0 1 0 -91.02 0z" stroke="#d3b714"></path>
        <path d="M680.21 160.72 a12.65 12.65 0 1 0 25.3 0 a12.65 12.65 0 1 0 -25.3 0z" stroke="#037b0b"></path>
        <path d="M1042.37 230.24L1076 230.24L1076 259.65L1042.37 259.65z" fill="#037b0b"></path>
    </g>
    <defs>
        <mask id="SvgjsMask1008">
            <rect width="1440" height="560" fill="#ffffff"></rect>
        </mask>
    </defs>
</svg>