<svg id="visual" viewBox="0 0 900 600" width="900" height="600" xmlns="http://www.w3.org/2000/svg" xmlns:xlink="http://www.w3.org/1999/xlink" version="1.1"><g stroke-width="1" stroke-linejoin="bevel"><path d="M424 271L513 213L398 232Z" fill="#331a53" stroke="#331a53"></path><path d="M424 271L496 278L513 213Z" fill="#5c297e" stroke="#5c297e"></path><path d="M513 213L392 110L398 232Z" fill="#331a53" stroke="#331a53"></path><path d="M513 213L469 83L392 110Z" fill="#8c36a8" stroke="#8c36a8"></path><path d="M573 412L594 306L496 278Z" fill="#462269" stroke="#462269"></path><path d="M496 278L594 306L513 213Z" fill="#331a53" stroke="#331a53"></path><path d="M513 213L589 69L469 83Z" fill="#8c36a8" stroke="#8c36a8"></path><path d="M289 280L369 363L424 271Z" fill="#21123e" stroke="#21123e"></path><path d="M424 271L369 363L496 278Z" fill="#8c36a8" stroke="#8c36a8"></path><path d="M289 280L424 271L398 232Z" fill="#df44e4" stroke="#df44e4"></path><path d="M594 306L624 238L513 213Z" fill="#8c36a8" stroke="#8c36a8"></path><path d="M263 207L289 280L398 232Z" fill="#df44e4" stroke="#df44e4"></path><path d="M392 110L263 207L398 232Z" fill="#df44e4" stroke="#df44e4"></path><path d="M624 238L589 69L513 213Z" fill="#21123e" stroke="#21123e"></path><path d="M369 363L469 438L496 278Z" fill="#df44e4" stroke="#df44e4"></path><path d="M469 438L573 412L496 278Z" fill="#fe46f6" stroke="#fe46f6"></path><path d="M594 306L677 335L624 238Z" fill="#462269" stroke="#462269"></path><path d="M289 280L302 386L369 363Z" fill="#5c297e" stroke="#5c297e"></path><path d="M369 363L433 523L469 438Z" fill="#c240d0" stroke="#c240d0"></path><path d="M176 360L302 386L289 280Z" fill="#c240d0" stroke="#c240d0"></path><path d="M589 69L503 0L469 83Z" fill="#462269" stroke="#462269"></path><path d="M469 83L364 0L392 110Z" fill="#14052a" stroke="#14052a"></path><path d="M392 110L281 66L263 207Z" fill="#14052a" stroke="#14052a"></path><path d="M364 0L281 66L392 110Z" fill="#fe46f6" stroke="#fe46f6"></path><path d="M180 108L217 223L263 207Z" fill="#21123e" stroke="#21123e"></path><path d="M263 207L217 223L289 280Z" fill="#14052a" stroke="#14052a"></path><path d="M503 0L364 0L469 83Z" fill="#331a53" stroke="#331a53"></path><path d="M573 412L677 335L594 306Z" fill="#fe46f6" stroke="#fe46f6"></path><path d="M624 238L682 101L589 69Z" fill="#462269" stroke="#462269"></path><path d="M735 207L682 101L624 238Z" fill="#a63cbc" stroke="#a63cbc"></path><path d="M589 69L633 0L503 0Z" fill="#5c297e" stroke="#5c297e"></path><path d="M112 283L197 269L82 185Z" fill="#fe46f6" stroke="#fe46f6"></path><path d="M217 223L197 269L289 280Z" fill="#462269" stroke="#462269"></path><path d="M677 335L735 207L624 238Z" fill="#fe46f6" stroke="#fe46f6"></path><path d="M661 0L633 0L682 101Z" fill="#331a53" stroke="#331a53"></path><path d="M682 101L633 0L589 69Z" fill="#8c36a8" stroke="#8c36a8"></path><path d="M364 0L269 0L281 66Z" fill="#462269" stroke="#462269"></path><path d="M281 66L180 108L263 207Z" fill="#5c297e" stroke="#5c297e"></path><path d="M182 0L180 108L281 66Z" fill="#c240d0" stroke="#c240d0"></path><path d="M302 386L433 523L369 363Z" fill="#462269" stroke="#462269"></path><path d="M486 536L615 490L573 412Z" fill="#21123e" stroke="#21123e"></path><path d="M573 412L720 410L677 335Z" fill="#331a53" stroke="#331a53"></path><path d="M796 0L661 0L682 101Z" fill="#331a53" stroke="#331a53"></path><path d="M112 283L176 360L197 269Z" fill="#21123e" stroke="#21123e"></path><path d="M197 269L176 360L289 280Z" fill="#fe46f6" stroke="#fe46f6"></path><path d="M302 386L283 528L433 523Z" fill="#331a53" stroke="#331a53"></path><path d="M486 536L573 412L469 438Z" fill="#a63cbc" stroke="#a63cbc"></path><path d="M677 335L765 286L735 207Z" fill="#733093" stroke="#733093"></path><path d="M433 523L486 536L469 438Z" fill="#462269" stroke="#462269"></path><path d="M720 410L765 286L677 335Z" fill="#fe46f6" stroke="#fe46f6"></path><path d="M735 207L827 101L682 101Z" fill="#a63cbc" stroke="#a63cbc"></path><path d="M685 476L720 410L573 412Z" fill="#8c36a8" stroke="#8c36a8"></path><path d="M604 600L685 476L615 490Z" fill="#a63cbc" stroke="#a63cbc"></path><path d="M615 490L685 476L573 412Z" fill="#df44e4" stroke="#df44e4"></path><path d="M82 185L197 269L217 223Z" fill="#462269" stroke="#462269"></path><path d="M182 0L133 85L180 108Z" fill="#c240d0" stroke="#c240d0"></path><path d="M180 108L82 185L217 223Z" fill="#462269" stroke="#462269"></path><path d="M225 512L302 386L176 360Z" fill="#21123e" stroke="#21123e"></path><path d="M225 512L283 528L302 386Z" fill="#c240d0" stroke="#c240d0"></path><path d="M433 523L504 600L486 536Z" fill="#21123e" stroke="#21123e"></path><path d="M269 0L182 0L281 66Z" fill="#5c297e" stroke="#5c297e"></path><path d="M95 437L225 512L176 360Z" fill="#331a53" stroke="#331a53"></path><path d="M133 85L82 185L180 108Z" fill="#a63cbc" stroke="#a63cbc"></path><path d="M379 600L504 600L433 523Z" fill="#21123e" stroke="#21123e"></path><path d="M486 536L604 600L615 490Z" fill="#14052a" stroke="#14052a"></path><path d="M379 600L433 523L283 528Z" fill="#5c297e" stroke="#5c297e"></path><path d="M900 229L839 200L900 289Z" fill="#331a53" stroke="#331a53"></path><path d="M765 286L839 200L735 207Z" fill="#8c36a8" stroke="#8c36a8"></path><path d="M835 368L765 286L720 410Z" fill="#a63cbc" stroke="#a63cbc"></path><path d="M305 600L379 600L283 528Z" fill="#a63cbc" stroke="#a63cbc"></path><path d="M839 200L827 101L735 207Z" fill="#462269" stroke="#462269"></path><path d="M182 0L127 0L133 85Z" fill="#fe46f6" stroke="#fe46f6"></path><path d="M0 88L0 200L82 185Z" fill="#c240d0" stroke="#c240d0"></path><path d="M504 600L604 600L486 536Z" fill="#a63cbc" stroke="#a63cbc"></path><path d="M827 101L796 0L682 101Z" fill="#fe46f6" stroke="#fe46f6"></path><path d="M829 475L720 410L685 476Z" fill="#462269" stroke="#462269"></path><path d="M829 475L835 368L720 410Z" fill="#df44e4" stroke="#df44e4"></path><path d="M172 600L305 600L283 528Z" fill="#fe46f6" stroke="#fe46f6"></path><path d="M0 411L95 437L112 283Z" fill="#a63cbc" stroke="#a63cbc"></path><path d="M112 283L95 437L176 360Z" fill="#5c297e" stroke="#5c297e"></path><path d="M225 512L172 600L283 528Z" fill="#331a53" stroke="#331a53"></path><path d="M95 437L134 519L225 512Z" fill="#331a53" stroke="#331a53"></path><path d="M900 289L839 200L765 286Z" fill="#462269" stroke="#462269"></path><path d="M839 200L900 97L827 101Z" fill="#c240d0" stroke="#c240d0"></path><path d="M827 101L900 0L796 0Z" fill="#fe46f6" stroke="#fe46f6"></path><path d="M835 368L900 289L765 286Z" fill="#fe46f6" stroke="#fe46f6"></path><path d="M736 600L829 475L685 476Z" fill="#21123e" stroke="#21123e"></path><path d="M835 368L900 424L900 289Z" fill="#14052a" stroke="#14052a"></path><path d="M0 88L82 185L133 85Z" fill="#14052a" stroke="#14052a"></path><path d="M82 185L0 285L112 283Z" fill="#331a53" stroke="#331a53"></path><path d="M0 200L0 285L82 185Z" fill="#21123e" stroke="#21123e"></path><path d="M95 437L0 498L134 519Z" fill="#21123e" stroke="#21123e"></path><path d="M900 229L900 97L839 200Z" fill="#a63cbc" stroke="#a63cbc"></path><path d="M604 600L736 600L685 476Z" fill="#14052a" stroke="#14052a"></path><path d="M64 600L172 600L134 519Z" fill="#5c297e" stroke="#5c297e"></path><path d="M134 519L172 600L225 512Z" fill="#331a53" stroke="#331a53"></path><path d="M127 0L0 88L133 85Z" fill="#fe46f6" stroke="#fe46f6"></path><path d="M900 475L900 424L829 475Z" fill="#a63cbc" stroke="#a63cbc"></path><path d="M829 475L900 424L835 368Z" fill="#21123e" stroke="#21123e"></path><path d="M0 285L0 411L112 283Z" fill="#5c297e" stroke="#5c297e"></path><path d="M900 97L900 0L827 101Z" fill="#a63cbc" stroke="#a63cbc"></path><path d="M736 600L791 600L829 475Z" fill="#733093" stroke="#733093"></path><path d="M127 0L0 0L0 88Z" fill="#df44e4" stroke="#df44e4"></path><path d="M900 600L900 475L829 475Z" fill="#8c36a8" stroke="#8c36a8"></path><path d="M0 411L0 498L95 437Z" fill="#fe46f6" stroke="#fe46f6"></path><path d="M0 498L64 600L134 519Z" fill="#14052a" stroke="#14052a"></path><path d="M791 600L900 600L829 475Z" fill="#733093" stroke="#733093"></path><path d="M0 498L0 600L64 600Z" fill="#fe46f6" stroke="#fe46f6"></path></g></svg>