<svg id="visual" viewBox="0 0 900 600" width="900" height="600" xmlns="http://www.w3.org/2000/svg" xmlns:xlink="http://www.w3.org/1999/xlink" version="1.1"><rect width="900" height="600" fill="#931F1F"></rect><g><g transform="translate(232 443)"><path d="M83.4 -25.7C96 11.7 85.8 57.9 56 80.3C26.1 102.8 -23.3 101.5 -56 77.6C-88.7 53.8 -104.5 7.3 -92.4 -29.5C-80.2 -66.3 -40.1 -93.4 -2.4 -92.6C35.4 -91.9 70.8 -63.2 83.4 -25.7Z" stroke="#F7760E" fill="none" stroke-width="20"></path></g><g transform="translate(532 428)"><path d="M48.6 -14.2C56.7 9.2 52.7 38.1 36.1 50.2C19.6 62.4 -9.5 57.8 -27.6 43.4C-45.7 29 -52.8 4.7 -46.4 -16.3C-39.9 -37.4 -20 -55.3 0.1 -55.4C20.2 -55.4 40.5 -37.6 48.6 -14.2Z" stroke="#F7760E" fill="none" stroke-width="20"></path></g><g transform="translate(363 163)"><path d="M72 -25.2C80.6 3 66 36.9 42.1 53.2C18.1 69.5 -15.2 68.1 -39.1 51.4C-63.1 34.6 -77.6 2.3 -69.5 -25.2C-61.4 -52.8 -30.7 -75.6 0.5 -75.8C31.7 -76 63.5 -53.5 72 -25.2Z" stroke="#F7760E" fill="none" stroke-width="20"></path></g></g></svg>