<svg id="visual" viewBox="0 0 900 600" width="900" height="600" xmlns="http://www.w3.org/2000/svg" xmlns:xlink="http://www.w3.org/1999/xlink" version="1.1"><rect width="900" height="600" fill="#362469"></rect><g><g transform="translate(147 272)"><path d="M69.4 -24.4C77.8 3.3 64.1 36.3 39.1 54.7C14 73.1 -22.3 76.8 -46.1 60.2C-70 43.7 -81.4 6.7 -71.7 -22.8C-61.9 -52.3 -31 -74.5 -0.2 -74.4C30.5 -74.3 61 -52 69.4 -24.4Z" stroke="#ffff00" fill="none" stroke-width="20"></path></g><g transform="translate(688 59)"><path d="M45.4 -14.8C51 2.4 42.2 24.3 25.8 36.5C9.3 48.7 -14.9 51.2 -30.3 40.3C-45.8 29.4 -52.5 5.1 -46 -13.4C-39.4 -31.9 -19.7 -44.6 0.1 -44.6C19.9 -44.7 39.8 -32 45.4 -14.8Z" stroke="#ffff00" fill="none" stroke-width="20"></path></g><g transform="translate(141 2)"><path d="M16.9 -5.2C19.4 2 16.9 11 11.1 15.3C5.2 19.6 -4.2 19.2 -10.2 14.7C-16.1 10.2 -18.6 1.7 -16.3 -5.3C-14.1 -12.3 -7 -17.7 0.1 -17.7C7.3 -17.7 14.5 -12.4 16.9 -5.2Z" stroke="#ffff00" fill="none" stroke-width="20"></path></g><g transform="translate(553 555)"><path d="M46.9 -14.5C53.3 4.6 46 28.8 28.6 42.1C11.2 55.3 -16.1 57.6 -33.1 45.3C-50.1 33 -56.7 6.2 -49.4 -14C-42.2 -34.1 -21.1 -47.7 -0.4 -47.6C20.2 -47.4 40.5 -33.6 46.9 -14.5Z" stroke="#ffff00" fill="none" stroke-width="20"></path></g><g transform="translate(892 46)"><path d="M18.4 -5.7C21.5 3.5 20 14.5 13.6 19.3C7.1 24.1 -4.2 22.8 -11.4 17.3C-18.6 11.7 -21.5 1.9 -18.9 -6.6C-16.3 -15.1 -8.2 -22.3 -0.3 -22.2C7.7 -22.2 15.3 -14.8 18.4 -5.7Z" stroke="#ffff00" fill="none" stroke-width="20"></path></g><g transform="translate(168 513)"><path d="M14 -3.9C15.9 1.3 13.6 8.5 8.7 12C3.8 15.6 -3.7 15.6 -8.4 12.1C-13.1 8.6 -14.8 1.6 -12.9 -3.6C-11 -8.7 -5.5 -12.1 0.3 -12.2C6 -12.3 12.1 -9.1 14 -3.9Z" stroke="#ffff00" fill="none" stroke-width="20"></path></g><g transform="translate(425 311)"><path d="M9.4 -3.3C10.7 0.8 9.1 5.6 5.6 8.3C2.1 11 -3.4 11.6 -6.9 9.2C-10.3 6.7 -11.8 1.2 -10.3 -3.2C-8.8 -7.7 -4.4 -11.1 -0.2 -11C4.1 -11 8.2 -7.5 9.4 -3.3Z" stroke="#ffff00" fill="none" stroke-width="20"></path></g><g transform="translate(413 90)"><path d="M53.2 -15.5C60.7 5.7 52.8 33.7 34.6 46.7C16.4 59.7 -12.1 57.8 -30.4 44C-48.7 30.1 -56.9 4.5 -50.2 -15.7C-43.4 -35.9 -21.7 -50.7 0.6 -50.9C22.9 -51.1 45.7 -36.7 53.2 -15.5Z" stroke="#ffff00" fill="none" stroke-width="20"></path></g><g transform="translate(829 516)"><path d="M35.8 -10.8C41.5 6 37.9 26.6 25 36.4C12.2 46.2 -10 45.2 -23.2 34.9C-36.5 24.5 -40.9 4.9 -35.5 -11.4C-30.2 -27.7 -15.1 -40.6 0 -40.6C15 -40.6 30 -27.6 35.8 -10.8Z" stroke="#ffff00" fill="none" stroke-width="20"></path></g><g transform="translate(882 294)"><path d="M38.5 -12.1C44 4.5 38.6 25 24.7 35.5C10.7 45.9 -11.6 46.3 -25.1 36.1C-38.5 26 -43.1 5.2 -37.4 -11.5C-31.8 -28.2 -15.9 -41 0.3 -41.1C16.5 -41.2 33 -28.6 38.5 -12.1Z" stroke="#ffff00" fill="none" stroke-width="20"></path></g><g transform="translate(674 266)"><path d="M39.8 -12.8C44.7 2.1 37 21.2 22.9 31.3C8.9 41.4 -11.4 42.5 -24.6 33.1C-37.8 23.7 -44 3.7 -38.7 -11.7C-33.4 -27.2 -16.7 -38.1 0.4 -38.2C17.5 -38.3 34.9 -27.7 39.8 -12.8Z" stroke="#ffff00" fill="none" stroke-width="20"></path></g></g></svg>