<?xml version="1.0" encoding="UTF-8"?>
<svg version="1.1" xmlns="http://www.w3.org/2000/svg" width="500" height="360">
<path d="M0 0 C165 0 330 0 500 0 C500 118.8 500 237.6 500 360 C335 360 170 360 0 360 C0 241.2 0 122.4 0 0 Z " fill="#FEFEFE" transform="translate(0,0)"/>
<path d="M0 0 C11.663492 10.1036929 22.71479244 23.7337479 24.02661133 39.76708984 C24.10786097 42.30117314 24.11278681 44.82416716 24.08984375 47.359375 C24.10144531 48.62974609 24.10144531 48.62974609 24.11328125 49.92578125 C24.06336884 66.22218261 17.85340019 81.41430723 6.34765625 92.9921875 C-0.12164212 98.95023433 -0.12164212 98.95023433 -2.98291016 100.421875 C-5.1285208 101.60808411 -6.57077707 102.60551216 -8.16015625 104.484375 C-9.25024305 108.54024574 -9.32268868 112.5505097 -9.41015625 116.734375 C-9.76638491 126.815646 -10.10723962 136.16746758 -17.27734375 143.9140625 C-24.19184007 149.68092458 -32.12464365 151.92698385 -40.95703125 151.8203125 C-47.93797792 151.08816443 -53.23954568 147.81648436 -58.03515625 142.796875 C-65.06317636 133.70932104 -65.71617138 124.92738051 -65.296875 113.78710938 C-65.26132389 108.16188266 -65.26132389 108.16188266 -67.84741211 103.34106445 C-69.87261474 101.56287784 -71.93757061 100.00561739 -74.16015625 98.484375 C-88.11306351 86.67806886 -96.92342246 73.99186258 -99.16015625 55.484375 C-100.15067964 38.20736129 -96.33477727 23.12277532 -85.109375 9.6328125 C-63.64289515 -14.02763623 -26.03506718 -21.42659763 0 0 Z " fill="#FEFCFC" transform="translate(134.16015625,43.515625)"/>
<path d="M0 0 C1.11431396 0.00410889 2.22862793 0.00821777 3.37670898 0.01245117 C4.58391602 0.01438477 5.79112305 0.01631836 7.03491211 0.01831055 C8.30141602 0.03055664 9.56791992 0.04280273 10.87280273 0.05541992 C12.77835938 0.05638672 12.77835938 0.05638672 14.72241211 0.05737305 C24.1702022 0.10281939 24.1702022 0.10281939 25.31030273 1.24291992 C25.06887218 10.17585026 23.65612873 19.13212484 22.56030273 27.99291992 C22.38647485 29.41363572 22.21281406 30.83437198 22.03930664 32.25512695 C21.04446607 40.38072152 20.02812361 48.50357871 19.00561523 56.62573242 C18.89576294 57.49963623 18.78591064 58.37354004 18.67272949 59.27392578 C18.13837189 63.52404234 17.60203798 67.77388636 17.0612793 72.02319336 C15.92034607 81.04156234 14.87038025 90.06125287 13.9883728 99.10910034 C13.64081962 102.57727731 13.17348119 105.87171191 12.31030273 109.24291992 C11.76490791 115.01151903 12.12718432 119.22338704 15.31030273 124.24291992 C17.08341863 126.42207346 17.08341863 126.42207346 19.33374023 126.50854492 C20.10975586 126.50338867 20.88577148 126.49823242 21.68530273 126.49291992 C22.45616211 126.49807617 23.22702148 126.50323242 24.02124023 126.50854492 C26.59828985 126.20950162 28.09209216 125.5772208 30.31030273 124.24291992 C34.61074922 118.68521752 35.36454411 111.68368963 36.24780273 104.93041992 C36.40909668 103.77727295 36.57039063 102.62412598 36.73657227 101.43603516 C38.3396026 89.67617423 39.65126215 77.87946227 40.99499512 66.08776855 C42.5729629 52.25480598 44.25616125 38.43923674 46.10284424 24.63937378 C46.36523871 22.67356437 46.6246596 20.70735566 46.88104248 18.74075317 C47.23814381 16.00976407 47.60644175 13.28053128 47.97827148 10.55151367 C48.08331497 9.73592987 48.18835846 8.92034607 48.29658508 8.08004761 C49.08108841 2.47213425 49.08108841 2.47213425 51.31030273 0.24291992 C53.90820312 0 53.90820312 0 57.15795898 0.01245117 C58.32004883 0.01438477 59.48213867 0.01631836 60.67944336 0.01831055 C61.89825195 0.03055664 63.11706055 0.04280273 64.37280273 0.05541992 C66.20681641 0.05638672 66.20681641 0.05638672 68.07788086 0.05737305 C77.17019217 0.10280936 77.17019217 0.10280936 78.31030273 1.24291992 C78.78263825 7.94286547 78.0698021 14.57942543 77.20874023 21.21557617 C77.03331192 22.62744705 77.03331192 22.62744705 76.8543396 24.06784058 C76.4703871 27.14778207 76.07794086 30.22657471 75.68530273 33.30541992 C75.41419604 35.46428035 75.14369832 37.62321732 74.8737793 39.78222656 C74.45282598 43.14795066 74.03130886 46.51359602 73.60742188 49.87895203 C72.59513019 57.92179649 71.61280594 65.96789874 70.64624023 74.01635742 C70.37757853 76.24544943 70.10886187 78.47453481 69.84008789 80.70361328 C69.4527961 83.91622598 69.06643837 87.12893293 68.68353271 90.34207153 C68.32834923 93.31858219 67.96826755 96.29446457 67.60717773 99.27026367 C67.50529144 100.13497284 67.40340515 100.99968201 67.2984314 101.89059448 C65.14085043 119.52215392 60.43638812 133.69782887 46.59155273 145.48901367 C36.46301554 153.27619381 23.83467748 155.48836054 11.31030273 154.24291992 C1.52671769 152.17892165 -6.11389838 148.15591618 -12.00219727 139.99291992 C-21.1977947 124.85902114 -17.79219741 106.58229008 -15.56469727 89.86791992 C-15.22335458 87.21295205 -14.88600682 84.55749438 -14.54884338 81.9019928 C-14.30997626 80.02207234 -14.06991519 78.14230325 -13.82872009 76.26268005 C-12.14622165 63.10733084 -10.64575913 49.92994237 -9.12005615 36.75567627 C-8.32694604 29.91599092 -7.52119346 23.07805063 -6.68969727 16.24291992 C-6.59622009 15.46736755 -6.50274292 14.69181519 -6.40643311 13.89276123 C-6.16073721 11.88711844 -5.90048118 9.88327366 -5.63891602 7.87963867 C-5.50187256 6.8183374 -5.3648291 5.75703613 -5.22363281 4.66357422 C-4.45412378 1.17492216 -3.56795392 0.32223964 0 0 Z " fill="#ED6845" transform="translate(185.689697265625,39.757080078125)"/>
<path d="M0 0 C0.72059601 -0.00204437 1.44119202 -0.00408875 2.18362427 -0.00619507 C4.56521993 -0.00920309 6.94612338 0.0092712 9.32763672 0.02832031 C10.98004993 0.0313775 12.63246572 0.03325393 14.28488159 0.03399658 C17.74666209 0.03859946 21.20820995 0.05302683 24.66992188 0.07519531 C29.11678958 0.10352191 33.5634743 0.11441117 38.01042366 0.11887741 C41.42123256 0.12302485 44.83200413 0.13283592 48.24279404 0.1447525 C49.88312352 0.15046589 51.52345662 0.15522104 53.16379166 0.15901947 C55.45040517 0.16586036 57.73687082 0.17948106 60.0234375 0.1953125 C61.97843674 0.2055545 61.97843674 0.2055545 63.97293091 0.21600342 C66.88232422 0.35644531 66.88232422 0.35644531 67.88232422 1.35644531 C67.80408879 17.08176662 64.97866855 29.48055286 56.45214844 42.83886719 C53.49979696 47.57364922 50.71915106 52.41138968 47.91156006 57.23287964 C46.06712438 60.39817956 44.21502653 63.55898529 42.36279297 66.71972656 C41.99011292 67.35584366 41.61743286 67.99196075 41.23345947 68.64735413 C37.38710412 75.20849896 33.51236702 81.75268181 29.63232422 88.29394531 C28.65368408 89.94475098 28.65368408 89.94475098 27.65527344 91.62890625 C24.4510753 97.03212686 21.24192746 102.43234427 18.02685547 107.82910156 C16.83281588 109.83819881 15.63880406 111.84731256 14.44482422 113.85644531 C13.8947168 114.77675537 13.34460938 115.69706543 12.77783203 116.64526367 C12.27735352 117.48839111 11.776875 118.33151855 11.26123047 119.20019531 C10.82367432 119.93431641 10.38611816 120.6684375 9.93530273 121.42480469 C8.74601601 123.4713512 8.74601601 123.4713512 7.88232422 126.35644531 C22.40232422 126.35644531 36.92232422 126.35644531 51.88232422 126.35644531 C51.88232422 132.75489957 51.80973005 138.21308816 50.94482422 144.41894531 C50.77080078 145.70929688 50.59677734 146.99964844 50.41748047 148.32910156 C49.88232422 151.35644531 49.88232422 151.35644531 48.88232422 152.35644531 C46.54518097 152.45668086 44.23758097 152.49263734 41.89990234 152.48583984 C41.16984482 152.48759216 40.43978729 152.48934448 39.68760681 152.4911499 C37.26290544 152.4955683 34.8382764 152.49263048 32.41357422 152.48925781 C30.73588039 152.48993086 29.05818666 152.49090088 27.38049316 152.49215698 C23.85977248 152.49363394 20.33907712 152.49147947 16.81835938 152.48681641 C12.29521926 152.48111912 7.77213848 152.48439813 3.24900055 152.49038887 C-0.21669973 152.49399455 -3.68238585 152.49285587 -7.14808655 152.49026108 C-8.81633003 152.48959183 -10.48457477 152.49042017 -12.15281677 152.49274063 C-14.48033072 152.49526727 -16.80774726 152.49142644 -19.13525391 152.48583984 C-19.83139297 152.48786407 -20.52753204 152.48988831 -21.24476624 152.49197388 C-26.00341305 152.47070805 -26.00341305 152.47070805 -27.11767578 151.35644531 C-27.90981877 136.3057285 -25.38322849 124.86528469 -17.30517578 112.23144531 C-16.52629727 110.96626028 -15.75030052 109.69929708 -14.97705078 108.43066406 C-13.42939544 105.89853232 -11.86867311 103.37536718 -10.29492188 100.859375 C-7.31127588 96.07872536 -4.46522573 91.21897367 -1.61767578 86.35644531 C-0.57927471 84.5995438 0.45980289 82.84304198 1.49951172 81.08691406 C5.15073434 74.90749971 8.78612863 68.71883721 12.41723633 62.52758789 C13.12197238 61.32598531 13.82687621 60.12448111 14.53198242 58.9230957 C20.69218634 48.42565136 26.78379707 37.89026494 32.88232422 27.35644531 C18.36232422 27.35644531 3.84232422 27.35644531 -11.11767578 27.35644531 C-11.11767578 4.91557045 -11.11767578 4.91557045 -9.01956177 1.64434814 C-6.07672115 -0.34845942 -3.52025708 -0.00983471 0 0 Z " fill="#ED6846" transform="translate(335.11767578125,39.6435546875)"/>
<path d="M0 0 C2.70427365 -0.01545299 5.40854735 -0.0308534 8.11282349 -0.04586792 C10.20535825 -0.05818905 12.29787661 -0.07336916 14.39038086 -0.09008789 C15.28120361 -0.09258545 16.17202637 -0.09508301 17.08984375 -0.09765625 C18.46450806 -0.10551147 18.46450806 -0.10551147 19.86694336 -0.11352539 C22 0 22 0 23 1 C23.15262642 2.74752914 23.2382871 4.50095568 23.29711914 6.25415039 C23.3570681 7.93578026 23.3570681 7.93578026 23.41822815 9.65138245 C23.45681442 10.8711528 23.4954007 12.09092316 23.53515625 13.34765625 C23.57813339 14.58921982 23.62111053 15.83078339 23.66539001 17.10997009 C23.77896408 20.41592994 23.88836743 23.72197533 23.99578857 27.02813721 C24.10635104 30.39973591 24.22234454 33.77114719 24.33789062 37.14257812 C24.56362363 43.76155675 24.78386372 50.38070143 25 57 C25.1383728 56.43898087 25.27674561 55.87796173 25.41931152 55.29994202 C26.0589342 52.71121733 26.7013269 50.12318734 27.34375 47.53515625 C27.5612793 46.65299438 27.77880859 45.77083252 28.00292969 44.86193848 C29.37472171 39.34555629 30.85827281 33.87955072 32.5 28.4375 C34.64205892 21.32780495 36.56558104 14.17655329 38.38867188 6.97827148 C39.89557921 1.10442079 39.89557921 1.10442079 41 0 C42.41570123 -0.08651611 43.835595 -0.10704904 45.25390625 -0.09765625 C46.53491211 -0.09282227 46.53491211 -0.09282227 47.84179688 -0.08789062 C48.73962891 -0.07951172 49.63746094 -0.07113281 50.5625 -0.0625 C51.46419922 -0.05798828 52.36589844 -0.05347656 53.29492188 -0.04882812 C55.53001314 -0.03700225 57.76497437 -0.0205222 60 0 C61.14259687 19.66898891 61.10630736 39.30696992 61 59 C61.66 59 62.32 59 63 59 C63.04825928 58.44530029 63.09651855 57.89060059 63.14624023 57.3190918 C63.66722604 51.97290634 64.62202758 46.98022399 66.0625 41.8125 C66.50678543 40.17585588 66.95077313 38.53913092 67.39453125 36.90234375 C67.64412598 35.98952637 67.8937207 35.07670898 68.15087891 34.13623047 C69.14302597 30.47173328 70.10966436 26.80073294 71.07421875 23.12890625 C71.61815027 21.06455946 72.16248909 19.00032055 72.70700073 16.93612671 C73.06900237 15.56203418 73.43010684 14.18770497 73.79031372 12.81314087 C74.29963886 10.87195988 74.81377942 8.93204429 75.328125 6.9921875 C75.6262207 5.86151855 75.92431641 4.73084961 76.23144531 3.56591797 C77 1 77 1 78 0 C79.56172745 -0.08685603 81.12729344 -0.10702219 82.69140625 -0.09765625 C83.63564453 -0.09443359 84.57988281 -0.09121094 85.55273438 -0.08789062 C86.54595703 -0.07951172 87.53917969 -0.07113281 88.5625 -0.0625 C89.55958984 -0.05798828 90.55667969 -0.05347656 91.58398438 -0.04882812 C94.05604849 -0.03700007 96.52799518 -0.02051849 99 0 C97.91836058 8.33567774 95.44666135 15.97715268 92.73999023 23.89770508 C90.87503185 29.36084561 89.09877539 34.82809085 87.5 40.375 C84.73809164 49.94504105 81.82641589 59.46736792 78.91601562 68.99316406 C77.9962899 72.01217847 77.08313001 75.03310639 76.171875 78.0546875 C72.93901489 88.76020997 69.62675223 99.42057991 66 110 C62.85418577 110.02888514 59.70840531 110.04675923 56.5625 110.0625 C55.66466797 110.07087891 54.76683594 110.07925781 53.84179688 110.08789062 C52.56079102 110.09272461 52.56079102 110.09272461 51.25390625 110.09765625 C50.46314697 110.10289307 49.6723877 110.10812988 48.85766602 110.11352539 C47 110 47 110 46 109 C44.38789149 97.03167477 44.67590804 84.73021217 44.44775391 72.67749023 C44.3960301 70.01276522 44.33886883 67.3481968 44.28125 64.68359375 C44.26767456 63.87006943 44.25409912 63.0565451 44.2401123 62.21836853 C44.16167918 58.65941833 43.95330828 55.42731491 43 52 C42.75765625 53.06476563 42.5153125 54.12953125 42.265625 55.2265625 C40.43388251 63.19029865 38.45405355 71.05848519 36.140625 78.8984375 C34.24914 85.51175688 32.70035254 92.22442556 31.10595703 98.91430664 C30.86216309 99.91582764 30.61836914 100.91734863 30.3671875 101.94921875 C30.15175293 102.84987061 29.93631836 103.75052246 29.71435547 104.6784668 C29 107 29 107 27 110 C25.02880859 110.34057617 25.02880859 110.34057617 22.6484375 110.29296875 C21.88192871 110.28547607 21.11541992 110.2779834 20.32568359 110.27026367 C19.35195801 110.24295166 18.37823242 110.21563965 17.375 110.1875 C15.70265754 110.15302762 14.03029228 110.11964977 12.35791016 110.0871582 C10.90527344 110.05810547 9.45263672 110.02905273 8 110 C6.29208562 94.05506498 4.99648691 78.08113432 3.76782227 62.09350586 C3.54898971 59.24819599 3.32693967 56.40316783 3.10180664 53.55834961 C1.69037555 35.71611649 0.53571302 17.89429216 0 0 Z " fill="#485256" transform="translate(197,208)"/>
<path d="M0 0 C11.663492 10.1036929 22.71479244 23.7337479 24.02661133 39.76708984 C24.10786097 42.30117314 24.11278681 44.82416716 24.08984375 47.359375 C24.10144531 48.62974609 24.10144531 48.62974609 24.11328125 49.92578125 C24.06336884 66.22218261 17.85340019 81.41430723 6.34765625 92.9921875 C-0.12164212 98.95023433 -0.12164212 98.95023433 -2.98291016 100.421875 C-5.1285208 101.60808411 -6.57077707 102.60551216 -8.16015625 104.484375 C-9.25024305 108.54024574 -9.32268868 112.5505097 -9.41015625 116.734375 C-9.76638491 126.815646 -10.10723962 136.16746758 -17.27734375 143.9140625 C-24.19184007 149.68092458 -32.12464365 151.92698385 -40.95703125 151.8203125 C-47.93797792 151.08816443 -53.23954568 147.81648436 -58.03515625 142.796875 C-65.06317636 133.70932104 -65.71617138 124.92738051 -65.296875 113.78710938 C-65.26132389 108.16188266 -65.26132389 108.16188266 -67.84741211 103.34106445 C-69.87261474 101.56287784 -71.93757061 100.00561739 -74.16015625 98.484375 C-88.11306351 86.67806886 -96.92342246 73.99186258 -99.16015625 55.484375 C-100.15067964 38.20736129 -96.33477727 23.12277532 -85.109375 9.6328125 C-63.64289515 -14.02763623 -26.03506718 -21.42659763 0 0 Z M-68.16015625 12.484375 C-68.84464844 13.04640625 -69.52914062 13.6084375 -70.234375 14.1875 C-79.64365761 22.7185829 -84.45194958 33.87112514 -85.37109375 46.34765625 C-85.8646714 60.98413204 -80.98082431 72.76106431 -71.22265625 83.54296875 C-67.98872895 86.58702532 -64.39181761 89.05433378 -60.7109375 91.52734375 C-53.99077025 96.68324542 -52.84607273 102.47627174 -51.16015625 110.484375 C-46.68100297 110.51323838 -42.20187334 110.53112687 -37.72265625 110.546875 C-36.44326172 110.55525391 -35.16386719 110.56363281 -33.84570312 110.57226562 C-32.02329102 110.57709961 -32.02329102 110.57709961 -30.1640625 110.58203125 C-29.03814697 110.58726807 -27.91223145 110.59250488 -26.75219727 110.59790039 C-24.23044754 110.77982948 -24.23044754 110.77982948 -23.16015625 109.484375 C-22.8896301 107.75830056 -22.64382019 106.02832483 -22.41015625 104.296875 C-21.25093236 97.87974277 -19.05011903 94.57592433 -13.85546875 90.81640625 C-12.12204102 89.6230282 -10.38630693 88.43299421 -8.6484375 87.24609375 C0.72028467 80.61297962 6.94641479 70.60556405 9.83984375 59.484375 C11.50954054 43.65324539 8.66311763 30.26475813 -1.16015625 17.484375 C-9.08245215 8.3870869 -22.12942802 2.37752395 -34.00390625 1.203125 C-46.4019578 0.60127784 -58.57150982 4.54111761 -68.16015625 12.484375 Z " fill="#ED6947" transform="translate(134.16015625,43.515625)"/>
<path d="M0 0 C0.83265381 0.00523682 1.66530762 0.01047363 2.52319336 0.01586914 C3.42231445 0.0190918 4.32143555 0.02231445 5.24780273 0.02563477 C6.66609375 0.03820312 6.66609375 0.03820312 8.11303711 0.05102539 C9.06243164 0.05553711 10.01182617 0.06004883 10.98999023 0.06469727 C13.34356776 0.07652429 15.69702188 0.09300514 18.05053711 0.11352539 C18.32243743 7.92846679 17.40201974 15.51397515 16.39648438 23.24462891 C16.11150603 25.43780854 15.83525146 27.63195862 15.56030273 29.82641602 C14.20286959 40.50419545 14.20286959 40.50419545 13.05053711 45.11352539 C18.66053711 45.11352539 24.27053711 45.11352539 30.05053711 45.11352539 C30.24389648 43.27790039 30.43725586 41.44227539 30.63647461 39.55102539 C33.06971198 16.5605336 33.06971198 16.5605336 34.17553711 7.42602539 C34.32249023 6.2052832 34.46944336 4.98454102 34.62084961 3.72680664 C35.05053711 1.11352539 35.05053711 1.11352539 36.05053711 0.11352539 C37.61226456 0.02666936 39.17783055 0.0065032 40.74194336 0.01586914 C41.68618164 0.0190918 42.63041992 0.02231445 43.60327148 0.02563477 C44.59649414 0.03401367 45.5897168 0.04239258 46.61303711 0.05102539 C47.61012695 0.05553711 48.6072168 0.06004883 49.63452148 0.06469727 C52.1065856 0.07652532 54.57853229 0.0930069 57.05053711 0.11352539 C56.28679377 9.1750093 55.27952394 18.2056586 54.23803711 27.23852539 C54.15094482 27.99652435 54.06385254 28.75452332 53.97412109 29.53549194 C51.49826545 51.07212519 48.94165501 72.59929794 46.12695312 94.09457397 C45.86799476 96.07559947 45.6125518 98.05708348 45.35717773 100.03857422 C45.20055664 101.21830811 45.04393555 102.39804199 44.88256836 103.61352539 C44.74568604 104.65508789 44.60880371 105.69665039 44.46777344 106.76977539 C44.05053711 109.11352539 44.05053711 109.11352539 43.05053711 110.11352539 C41.56181851 110.20021971 40.06909211 110.22056033 38.57788086 110.21118164 C37.67875977 110.20795898 36.77963867 110.20473633 35.85327148 110.20141602 C34.43498047 110.18884766 34.43498047 110.18884766 32.98803711 110.17602539 C32.03864258 110.17151367 31.08924805 110.16700195 30.11108398 110.16235352 C27.75750646 110.15052649 25.40405234 110.13404564 23.05053711 110.11352539 C22.04816996 107.10642394 22.02913748 105.87687352 22.39599609 102.82568359 C22.54626503 101.53468498 22.54626503 101.53468498 22.6995697 100.21760559 C22.87136497 98.82997261 22.87136497 98.82997261 23.04663086 97.41430664 C23.15902603 96.46412155 23.2714212 95.51393646 23.38722229 94.53495789 C23.74792768 91.49786502 24.1178692 88.46197803 24.48803711 85.42602539 C24.73408854 83.36815537 24.97953878 81.31021338 25.22436523 79.25219727 C25.8261141 74.20511136 26.43614916 69.15908767 27.05053711 64.11352539 C19.13053711 64.60852539 19.13053711 64.60852539 11.05053711 65.11352539 C10.83119507 67.05171143 10.83119507 67.05171143 10.60742188 69.02905273 C10.06518153 73.81155674 9.51797141 78.59348111 8.96923828 83.37524414 C8.73219831 85.44702877 8.4965162 87.51896921 8.26220703 89.59106445 C7.9256697 92.56511532 7.584293 95.53857621 7.24194336 98.51196289 C7.13773575 99.44221283 7.03352814 100.37246277 6.92616272 101.3309021 C6.82613449 102.19164337 6.72610626 103.05238464 6.62304688 103.93920898 C6.53644302 104.69865814 6.44983917 105.4581073 6.36061096 106.24057007 C6.05053711 108.11352539 6.05053711 108.11352539 5.05053711 110.11352539 C-1.87946289 110.11352539 -8.80946289 110.11352539 -15.94946289 110.11352539 C-15.37397345 98.3471931 -14.12250435 86.79981135 -12.53796387 75.12963867 C-11.85029459 70.06454099 -11.18025032 64.99710218 -10.50805664 59.92993164 C-10.37392365 58.92237823 -10.23979065 57.91482483 -10.10159302 56.8767395 C-8.72596748 46.50927159 -7.46750646 36.12895121 -6.24316406 25.74267578 C-3.21084356 0.18698087 -3.21084356 0.18698087 0 0 Z " fill="#475155" transform="translate(308.949462890625,207.886474609375)"/>
<path d="M0 0 C1.11431396 0.00410889 2.22862793 0.00821777 3.37670898 0.01245117 C4.58391602 0.01438477 5.79112305 0.01631836 7.03491211 0.01831055 C8.30141602 0.03055664 9.56791992 0.04280273 10.87280273 0.05541992 C12.77835937 0.05638672 12.77835937 0.05638672 14.72241211 0.05737305 C24.1702022 0.10281939 24.1702022 0.10281939 25.31030273 1.24291992 C25.21819541 12.96079368 23.47351229 24.62820183 21.89990234 36.2171936 C21.2059793 41.33097879 20.53113943 46.44729885 19.85327148 51.56323242 C19.71831268 52.57801163 19.58335388 53.59279083 19.44430542 54.63832092 C18.34284953 62.93765217 17.30518143 71.24264385 16.31030273 79.55541992 C16.15988525 80.80492432 16.00946777 82.05442871 15.85449219 83.34179688 C15.09528818 89.66067415 14.34142571 95.98017353 13.59057617 102.30004883 C12.92784811 107.87401876 12.25895077 113.44722683 11.5871582 119.02011108 C11.32134642 121.2345566 11.05764035 123.449256 10.79614258 125.66421509 C10.42849468 128.77704008 10.05373055 131.8889359 9.67749023 135.00073242 C9.56927948 135.93158157 9.46106873 136.86243073 9.34957886 137.82148743 C9.24235504 138.69677597 9.13513123 139.57206451 9.0246582 140.47387695 C8.93457489 141.22927765 8.84449158 141.98467834 8.75167847 142.76296997 C8.17990655 145.97557463 7.20674231 149.10538141 6.31030273 152.24291992 C-2.92969727 152.24291992 -12.16969727 152.24291992 -21.68969727 152.24291992 C-21.68969727 143.61145684 -21.47318064 135.76030939 -20.29907227 127.32104492 C-20.15459152 126.23090088 -20.01011078 125.14075684 -19.86125183 124.01757812 C-19.55358054 121.70291849 -19.24216258 119.38875413 -18.92721558 117.07507324 C-18.26416361 112.2031459 -17.61987852 107.32878753 -16.97422791 102.45452881 C-16.65298424 100.03126348 -16.33077705 97.60812568 -16.00758362 95.18511963 C-14.82218748 86.29416529 -13.69262674 77.39904297 -12.62719727 68.49291992 C-12.48072754 67.28079834 -12.33425781 66.06867676 -12.18334961 64.81982422 C-11.29624438 57.43814512 -10.43598923 50.05361845 -9.58601379 42.66757202 C-9.05131012 38.03477821 -8.50977851 33.4027936 -7.96755981 28.77087402 C-7.70018299 26.47087834 -7.43605382 24.17050267 -7.17526245 21.86975098 C-6.81026909 18.65073389 -6.43468614 15.43311149 -6.05688477 12.21557617 C-5.94867905 11.23708206 -5.84047333 10.25858795 -5.72898865 9.2504425 C-5.6217598 8.35472031 -5.51453094 7.45899811 -5.40405273 6.53613281 C-5.31396942 5.75186417 -5.22388611 4.96759552 -5.131073 4.15956116 C-4.387789 0.93190575 -3.2160831 0.29046044 0 0 Z " fill="#ED6845" transform="translate(286.689697265625,39.757080078125)"/>
<path d="M0 0 C0.97484848 0.00222061 1.94969696 0.00444122 2.9540863 0.00672913 C4.05515213 0.00680466 5.15621796 0.00688019 6.29064941 0.00695801 C7.48854599 0.01211929 8.68644257 0.01728058 9.92063904 0.02259827 C11.14000656 0.02401321 12.35937408 0.02542816 13.61569214 0.02688599 C17.52856349 0.03250485 21.4413786 0.04506055 25.35423279 0.05775452 C27.99941426 0.06276709 30.64459662 0.06733041 33.28977966 0.07142639 C39.79045005 0.08248041 46.2910874 0.09923688 52.79173279 0.12025452 C52.92902417 12.0562923 51.72135781 20.78986759 45.22923279 30.99525452 C44.05217955 32.91504814 42.87646955 34.83566577 41.70188904 36.75697327 C41.07169861 37.7771051 40.44150818 38.79723694 39.79222107 39.84828186 C36.54076989 45.16631319 33.40329712 50.5503205 30.26121521 55.93345642 C29.17226118 57.79828716 28.08100912 59.66175332 26.98899841 61.52479553 C21.22003928 71.36892199 15.49587738 81.23842656 9.79173279 91.12025452 C20.35173279 91.12025452 30.91173279 91.12025452 41.79173279 91.12025452 C41.79173279 104.00914341 41.79173279 104.00914341 40.79173279 109.12025452 C39.79173279 110.12025452 39.79173279 110.12025452 37.58346558 110.24050903 C36.6086171 110.23828842 35.63376862 110.23606781 34.62937927 110.23377991 C33.52831345 110.23370438 32.42724762 110.23362885 31.29281616 110.23355103 C30.09491959 110.22838974 28.89702301 110.22322845 27.66282654 110.21791077 C26.44345901 110.21649582 25.22409149 110.21508087 23.96777344 110.21362305 C20.05490209 110.20800419 16.14208698 110.19544848 12.22923279 110.18275452 C9.58405132 110.17774195 6.93886896 110.17317862 4.29368591 110.16908264 C-2.20698447 110.15802863 -8.70762183 110.14127215 -15.20826721 110.12025452 C-15.20894794 107.88542308 -15.20884454 105.65061672 -15.20545959 103.41578674 C-15.20744867 101.78949882 -15.22816848 100.16318436 -15.26197815 98.5372467 C-14.99440598 90.35556818 -10.6394291 84.11711429 -6.45826721 77.37025452 C-5.68024091 76.0844085 -4.90405764 74.79744565 -4.12965393 73.50941467 C-2.57115674 70.92212706 -1.00377237 68.34060668 0.57200623 65.7638092 C3.6600321 60.70763468 6.66274988 55.60165597 9.66673279 50.49525452 C10.7004915 48.74780221 11.73434395 47.00040536 12.76829529 45.25306702 C15.88442027 39.9732472 18.96911221 34.67549143 22.04173279 29.37025452 C22.50821228 28.56507385 22.97469177 27.75989319 23.45530701 26.93031311 C25.70257938 23.06810369 25.70257938 23.06810369 27.79173279 19.12025452 C17.23173279 19.12025452 6.67173279 19.12025452 -4.20826721 19.12025452 C-4.06389221 16.17087952 -3.91951721 13.22150452 -3.77076721 10.18275452 C-3.72766418 9.25213196 -3.68456116 8.3215094 -3.64015198 7.36268616 C-3.60204407 6.63428528 -3.56393616 5.9058844 -3.52467346 5.15541077 C-3.48801575 4.40654602 -3.45135803 3.65768127 -3.41358948 2.88612366 C-3.10324641 0.21702567 -2.6906976 0.14652599 0 0 Z " fill="#475155" transform="translate(413.20826721191406,207.87974548339844)"/>
<path d="M0 0 C0.87454834 0.00523682 1.74909668 0.01047363 2.65014648 0.01586914 C3.59438477 0.0190918 4.53862305 0.02231445 5.51147461 0.02563477 C6.50469727 0.03401367 7.49791992 0.04239258 8.52124023 0.05102539 C9.51833008 0.05553711 10.51541992 0.06004883 11.54272461 0.06469727 C14.01478872 0.07652532 16.48673541 0.0930069 18.95874023 0.11352539 C18.1949969 9.1750093 17.18772706 18.2056586 16.14624023 27.23852539 C16.05914795 27.99652435 15.97205566 28.75452332 15.88232422 29.53549194 C13.40646857 51.07212519 10.84985813 72.59929794 8.03515625 94.09457397 C7.77619789 96.07559947 7.52075492 98.05708348 7.26538086 100.03857422 C7.10875977 101.21830811 6.95213867 102.39804199 6.79077148 103.61352539 C6.65388916 104.65508789 6.51700684 105.69665039 6.37597656 106.76977539 C5.95874023 109.11352539 5.95874023 109.11352539 4.95874023 110.11352539 C3.39701279 110.20038142 1.83144679 110.22054759 0.26733398 110.21118164 C-0.6769043 110.20795898 -1.62114258 110.20473633 -2.59399414 110.20141602 C-3.5872168 110.19303711 -4.58043945 110.1846582 -5.60375977 110.17602539 C-6.60084961 110.17151367 -7.59793945 110.16700195 -8.62524414 110.16235352 C-11.09730825 110.15052546 -13.56925494 110.13404388 -16.04125977 110.11352539 C-15.46540398 99.08547656 -14.10213941 88.21824696 -12.62976074 77.28106689 C-11.94416301 72.18604266 -11.27249997 67.08917917 -10.59985352 61.99243164 C-10.46572052 60.97828186 -10.33158752 59.96413208 -10.19338989 58.91925049 C-8.67229616 47.38268886 -7.27879028 35.83193838 -5.90063477 24.27758789 C-5.76206055 23.12419922 -5.62348633 21.97081055 -5.48071289 20.7824707 C-5.24777391 18.83768906 -5.01546501 16.89282722 -4.78808594 14.9473877 C-4.52738561 12.71843601 -4.26125571 10.49018316 -3.99438477 8.26196289 C-3.91412048 7.56358307 -3.8338562 6.86520325 -3.75115967 6.1456604 C-3.02642311 0.1683156 -3.02642311 0.1683156 0 0 Z " fill="#485256" transform="translate(382.041259765625,207.886474609375)"/>
<path d="M0 0 C4.25874702 3.59914311 7.73159926 6.64883615 8.65234375 12.37890625 C9.05199078 19.38735054 7.50387912 24.3216065 3.25 29.875 C1.246646 32.06221823 -0.80794667 34.12961201 -2.98046875 36.1484375 C-5.67836697 38.78082384 -6.74461759 40.85548878 -7.75 44.5 C-8.08 45.61375 -8.41 46.7275 -8.75 47.875 C-13.06943389 50.03471694 -18.35553639 49.33033506 -22.8125 47.875 C-24.75 45.875 -24.75 45.875 -25.3125 42.1875 C-24.78198325 34.56481195 -20.85940312 29.48433207 -15.3359375 24.515625 C-12.47046248 21.5513405 -11.52951391 18.67013907 -11.125 14.625 C-11.00125 13.3875 -10.8775 12.15 -10.75 10.875 C-15.5487821 11.8693161 -15.5487821 11.8693161 -19.5 14.5625 C-20.57066507 16.54323038 -21.44937507 18.4875987 -22.3125 20.5625 C-23.75 23.875 -23.75 23.875 -25.75 24.875 C-30.13002818 25.38038787 -32.32922936 25.10041285 -36.25 23 C-38.18343134 21.17542136 -38.70204865 20.21701445 -39.07421875 17.5625 C-38.75207945 11.52468909 -37.01017685 7.15696803 -32.75 2.875 C-24.06187555 -4.60806021 -9.81032668 -6.6475945 0 0 Z " fill="#4A5255" transform="translate(111.75,68.125)"/>
<path d="M0 0 C8.91 0 17.82 0 27 0 C26.04812889 5.71122666 25.77878972 7.11324486 22 11 C17.75721531 13.54389187 13.8306783 13.67092754 9 13 C4.06582438 10.62428581 1.95002458 8.09173084 0 3 C0 2.01 0 1.02 0 0 Z " fill="#FEFBFB" transform="translate(83,168)"/>
<path d="M0 0 C4.00658269 1.19494571 6.51802899 2.16653977 9.5625 5.0625 C10.14678642 8.40886767 10.39239708 9.93490281 9.5625 13.0625 C7.375 16.0625 7.375 16.0625 4.5625 18.0625 C0.60492522 18.53149831 -1.5435748 17.8127323 -4.75 15.5 C-7.77273995 13.07264822 -8.35396304 12.42877745 -9.25 8.5 C-7.95598822 3.02533478 -5.84144603 0.10620811 0 0 Z " fill="#4E5558" transform="translate(94.4375,118.9375)"/>
<path d="M0 0 C2.875 0.3125 2.875 0.3125 6 1 C8.31911698 4.47867547 8.70973597 6.35866858 8.65625 10.45703125 C7.52325935 14.84737001 4.42240076 17.52574997 1.26171875 20.640625 C-2.47285847 24.5364534 -4.26864525 28.01141489 -5.1875 33.3125 C-5.42533203 34.63701172 -5.42533203 34.63701172 -5.66796875 35.98828125 C-5.77753906 36.65214844 -5.88710937 37.31601563 -6 38 C-7.65 37.34 -9.3 36.68 -11 36 C-11.45620178 29.61317513 -10.67487143 25.31524882 -7 20 C-5.27037223 18.10858077 -3.49109792 16.35443743 -1.5859375 14.640625 C1.27953752 11.6763405 2.22048609 8.79513907 2.625 4.75 C2.74875 3.5125 2.8725 2.275 3 1 C2.01 0.67 1.02 0.34 0 0 Z " fill="#E66F50" transform="translate(98,78)"/>
<path d="M0 0 C0.71994141 -0.020625 1.43988281 -0.04125 2.18164062 -0.0625 C7.4741586 -0.10181304 7.4741586 -0.10181304 9.93359375 1.765625 C10.26488281 2.25546875 10.59617188 2.7453125 10.9375 3.25 C9.638125 3.20875 8.33875 3.1675 7 3.125 C-1.89888742 3.1807924 -8.57882601 4.86900863 -15.0625 11.25 C-18.79741479 15.85927346 -19.65798821 20.48570698 -20.0625 26.25 C-23.9375 24.375 -23.9375 24.375 -25.0625 23.25 C-25.22227959 17.29250386 -24.39396139 12.44933527 -20.58984375 7.78515625 C-14.20266642 1.36530793 -8.94384902 0.06440215 0 0 Z " fill="#E66C4D" transform="translate(98.0625,64.75)"/>
<path d="M0 0 C3.3125 0.9375 3.3125 0.9375 5.3125 2.9375 C4.36375 3.205625 3.415 3.47375 2.4375 3.75 C-0.94017273 4.68736588 -0.94017273 4.68736588 -2.6875 7.9375 C-2.92805468 9.99459596 -2.92805468 9.99459596 -2.8125 12.125 C-2.77125 13.383125 -2.73 14.64125 -2.6875 15.9375 C-7.5625 13.0625 -7.5625 13.0625 -8.6875 11.9375 C-9.18775559 7.60195156 -9.13001273 5.58115488 -6.625 1.9375 C-3.6875 -0.0625 -3.6875 -0.0625 0 0 Z " fill="#E97050" transform="translate(94.6875,119.0625)"/>
</svg>
