<?xml version="1.0" encoding="UTF-8"?>
<svg id="Layer_1" data-name="Layer 1" xmlns="http://www.w3.org/2000/svg" viewBox="0 0 431.19 286.02">
  <defs>
    <style>
      .cls-1 {
        fill: #fada65;
      }

      .cls-1, .cls-2, .cls-3, .cls-4, .cls-5, .cls-6, .cls-7, .cls-8, .cls-9, .cls-10, .cls-11, .cls-12 {
        stroke-width: 0px;
      }

      .cls-2 {
        fill: #fada65;
      }

      .cls-3 {
        fill: #6F41DB;
      }

      .cls-4 {
        fill: #fada65;
      }

      .cls-5 {
        fill: #fada65;
      }

      .cls-6 {
        fill: #fada65;
      }

      .cls-7 {
        fill: #6F41DB;
      }

      .cls-8 {
        fill: #fada65;
      }

      .cls-9 {
        fill: #fada65;
      }

      .cls-10 {
        fill: #fada65;
      }

      .cls-11 {
        fill: #ffffff;
      }

      .cls-12 {
        fill: #ffffff;
      }
    </style>
  </defs>
  <path class="cls-1" d="M187.7,107.77c3.73-30.51,7.44-60.57,11.1-90.63.98-8.03.9-8.04,9.19-8.04,5.66,0,11.33.04,16.99-.01,3.08-.03,4.55.9,4.1,4.45-4.54,35.99-8.67,72.04-13.51,107.99-3.68,27.4-27.24,44.47-54.47,40.32-16.12-2.46-27.98-15.27-28.28-31.93-.18-9.76.97-19.59,2.12-29.32,3.39-28.76,7.14-57.47,10.58-86.22.44-3.69,1.72-5.4,5.56-5.31,6.66.16,13.33.11,19.99.02,3.42-.05,4.82,1.19,4.37,4.79-4.48,35.66-8.85,71.34-13.3,107.01-.91,7.29,1.95,13.45,7.07,14.89,6.48,1.82,12.64-1.9,15.45-9.37.46-1.24.84-2.53,1.03-3.83.7-4.77,1.31-9.56,1.98-14.79Z"/>
  <path class="cls-5" d="M275.29,135.69c1.75-3.46,3.3-6.58,5.06-9.58,16.69-28.39,33.43-56.76,50.13-85.14.89-1.51,1.6-3.13,2.76-5.42-8.4,0-16,0-23.61,0-5.83,0-11.66-.06-17.49.02-3.17.04-4.61-1.04-4.13-4.47.79-5.6,1.38-11.23,1.9-16.86.34-3.66,2.06-5.2,5.82-5.18,22.48.09,44.97.1,67.45,0,4.01-.02,4.81,1.76,4.3,5.27-.81,5.6-1.16,11.27-2.12,16.83-.5,2.87-1.5,5.83-2.97,8.34-17.46,29.87-35.05,59.66-52.6,89.48-.9,1.52-1.7,3.1-2.92,5.33,2.36.14,3.92.31,5.49.31,11.82.02,23.65.08,35.47-.03,3.39-.03,4.9.83,4.25,4.63-1.02,5.9-1.34,11.92-2.49,17.78-.29,1.46-2.59,3.6-3.99,3.61-23.15.22-46.3.12-69.45.2-3.38.01-3.9-1.69-3.55-4.43.88-6.76,1.72-13.53,2.67-20.69Z"/>
  <path class="cls-11" d="M200.86,180.97c.57-4.18,2.51-5.83,6.48-5.37,2.96.34,6.01.31,8.98,0,3.94-.41,5.16,1.08,5.25,4.99.35,15.82,1,31.63,1.56,47.44.06,1.65.21,3.3,1.21,5.16.43-1.53.9-3.05,1.3-4.6,4.15-16.09,8.39-32.16,12.38-48.3.87-3.54,2.38-4.93,6.11-4.71,5.42.32,10.87.08,17.04.08-3.06,10.17-5.84,19.53-8.68,28.87-7.69,25.28-15.47,50.52-23.03,75.84-1.16,3.9-2.65,6.02-7.15,5.48-4.58-.55-10.86,1.29-13.39-1.09-2.48-2.33-1.31-8.68-1.5-13.28-.61-14.97-1.11-29.95-2.48-45.19-.38,1.22-.82,2.43-1.15,3.66-4.41,16.88-8.92,33.74-13.12,50.68-.97,3.93-2.56,5.59-6.76,5.22-4.6-.4-9.26-.09-14.37-.09-.58-7.21-1.17-13.97-1.66-20.75-2.01-28.06-3.94-56.14-6.05-84.19-.28-3.78.39-5.53,4.67-5.25,5.61.35,11.26.09,17.39.09.63,19.53,1.25,38.57,1.86,57.6.33.07.66.13.99.2,4.67-17.37,9.34-34.73,14.11-52.49Z"/>
  <path class="cls-10" d="M122.4,53.23c2.2,26.52-7.42,46.83-29.36,61.36-1.93,1.28-3.36,4.44-3.65,6.89-.85,7.08-.3,14.37-1.59,21.34-2.51,13.65-15.37,22.31-29.69,20.88-13.19-1.32-23.57-12.43-24.01-25.81-.13-3.99-.25-8.01.03-11.99.42-6.11-1.95-10.2-7.11-13.67C11.54,101.83,2.52,87.35.41,68.58-3.54,33.48,21.52,3.01,56.92.2c31.87-2.53,58.96,19.23,65.48,53.03M107.99,53.12c-4.29-28.07-35.05-45.76-60.83-36.73-19.28,6.75-30.4,20.01-32.99,39.71-2.37,18.02,4.46,33.2,19.39,43.72,8.18,5.76,14.89,11.66,14.18,22.78h26.68c3.85-14.92,4.1-15.53,10.82-19.86,17.84-11.49,25.53-27.74,22.75-49.62M73.6,136.7h-25.55c1.02,8.81,6.16,13.33,13.96,13.07,7.15-.24,12.18-5.38,11.59-13.07Z"/>
  <path class="cls-11" d="M324.72,223.97c-2.38,19.61-4.78,38.77-7.02,57.95-.35,2.97-1.59,4-4.48,3.9-4.49-.16-9-.21-13.49.01-3.57.18-4.15-1.29-3.7-4.51,1.62-11.54,3.03-23.1,4.47-34.66.24-1.94.25-3.91.4-6.52-4.96,0-9.59-.28-14.14.2-1.11.12-2.59,2.66-2.8,4.24-1.58,11.71-3.13,23.44-4.17,35.2-.41,4.68-1.93,6.47-6.71,6.08-4.92-.4-9.9-.09-15.59-.09.87-7.67,1.61-14.72,2.47-21.75,3.27-26.77,6.46-53.54,9.91-80.28,1.27-9.83.12-7.89,9.22-8.07,4.13-.08,8.26-.01,13.29-.01-1.84,15.17-3.61,29.78-5.44,44.86h16.68c1.34-10.88,2.85-21.87,4.01-32.9,1.26-11.94,1.12-11.95,13.27-11.95h9.81c-2.03,16.35-3.98,32.1-5.97,48.3Z"/>
  <path class="cls-1" d="M241.48,57.45c1.79-14.98,3.56-29.5,5.25-44.04.36-3.05,1.9-4.36,4.94-4.33,6.83.07,13.65.15,20.48-.03,3.94-.1,4.84,1.67,4.4,5.23-2.83,22.44-5.57,44.89-8.34,67.34-2.85,23.11-5.7,46.21-8.55,69.32-.1.83-.12,1.66-.22,2.49q-.93,7.34-8.22,7.34c-5.99,0-11.99-.09-17.98.04-3.21.07-4.48-.9-4.03-4.39,2.82-21.94,5.48-43.9,8.18-65.85,1.34-10.89,2.69-21.79,4.09-33.12Z"/>
  <path class="cls-12" d="M394.18,254.31c-2.37,4.01-4.53,7.73-7.13,12.21h33.11c-.68,6.2-1.15,11.73-2.04,17.2-.14.84-2.19,1.96-3.37,1.96-16.48.13-32.96.06-49.44.12-2.75,0-3.27-1.1-3.05-3.68.77-9.2,2.79-17.69,7.88-25.81,11.48-18.3,22.09-37.14,33.04-55.77.97-1.66,1.84-3.37,3.13-5.75h-33.06c.66-6.04,1.11-11.57,1.99-17.02.14-.86,2.18-2,3.35-2.01,16.48-.13,32.96-.06,49.44-.12,2.69,0,3.3.99,3.1,3.64-.73,9.56-2.96,18.33-8.3,26.69-10.01,15.68-19.03,32-28.67,48.35Z"/>
  <path class="cls-11" d="M335.21,248.23c2.86-23.07,5.7-45.69,8.35-68.34.36-3.11,1.4-4.42,4.63-4.28,4.66.2,9.33.13,13.99.03,2.67-.06,3.5,1.01,3.17,3.63-3.43,27.41-6.78,54.83-10.16,82.25-.83,6.77-1.8,13.53-2.47,20.32-.29,2.94-1.51,4.07-4.44,3.97-4.66-.15-9.33-.15-13.99,0-3.02.1-3.69-1.17-3.32-3.95,1.47-11.05,2.78-22.12,4.25-33.63Z"/>
  <path class="cls-7" d="M108.16,53.53c2.62,21.47-5.08,37.72-22.92,49.21-6.71,4.33-6.97,4.94-10.82,19.86h-26.68c.71-11.12-6-17.01-14.18-22.78-14.92-10.52-21.75-25.69-19.39-43.72,2.59-19.7,13.71-32.96,32.99-39.71,25.77-9.03,56.54,8.66,60.99,37.14M56.27,103.61c5.31,2.95,9.29,2.14,11.74-2.4,2.38-4.41,1.26-7.79-3.93-11.12-5.88-3.26-10.07-2.58-12.61,2.07-2.44,4.46-.91,8.48,4.79,11.45M42.65,60.28c.31.12.62.23,1.53.88,5.91,1.63,8.39.37,10.54-5.33,2.47-6.55,4.58-8.2,10.67-7.3,1.45,5.65-1.13,9.66-4.67,13.86-3.43,4.07-6.24,8.85-8.47,13.7-1.92,4.18-.52,7.83,5.08,9.47,3.98.95,9.11,1.78,10.39-2.62,1.96-6.77,6.46-11,10.98-15.64,8.3-8.53,9.56-26.75-7.08-32.14-13.55-6.11-30.02,1.5-33.85,15.65-1.3,4.81-.09,7.06,4.89,8.95,0,0-.07,0,0,.5Z"/>
  <path class="cls-3" d="M73.98,136.91c.21,7.48-4.82,12.62-11.97,12.85-7.81.26-12.94-4.26-13.96-13.07,8.57,0,17.06,0,25.93.22Z"/>
  <path class="cls-2" d="M71.98,35.89c16.28,4.68,15.02,22.9,6.72,31.43-4.51,4.64-9.02,8.87-10.98,15.64-1.27,4.4-6.4,3.56-10.68,1.97-.87-6.63,1.33-11.69,5.02-16.19,2.2-2.68,4.83-5.05,6.82-7.87,3.91-5.55,2-12.04-3.64-13.22-5.93,0-8.04,1.64-10.52,8.19-2.15,5.7-4.63,6.95-10.93,4.85-.6-.74-.87-.88-1.21-.91,0,0,.07,0,.04-.33.12-2.57-.23-4.98.5-7,4.33-11.96,13.03-16.85,28.86-16.55Z"/>
  <path class="cls-6" d="M65.32,48.09c5.56.73,7.48,7.23,3.57,12.78-1.99,2.82-4.62,5.19-6.82,7.87-3.7,4.5-5.89,9.56-5.3,16.01-5.03-.81-6.43-4.46-4.51-8.64,2.23-4.86,5.04-9.63,8.47-13.7,3.54-4.2,6.12-8.21,4.59-14.31Z"/>
  <path class="cls-9" d="M71.8,35.53c-15.65.06-24.35,4.94-28.68,16.9-.73,2.02-.38,4.43-.5,7.04-4.94-1.59-6.15-3.84-4.85-8.65,3.83-14.15,20.3-21.76,34.03-15.29Z"/>
  <path class="cls-8" d="M64.51,90.61c4.77,2.81,5.89,6.18,3.51,10.59-2.45,4.54-6.43,5.35-11.97,1.76-1.01-8.66,1.27-11.73,8.46-12.36Z"/>
  <path class="cls-4" d="M64.3,90.35c-6.98.89-9.26,3.96-8.53,12.44-5.19-2.15-6.73-6.17-4.29-10.64,2.54-4.65,6.73-5.33,12.82-1.81Z"/>
  <path class="cls-9" d="M42.62,60.03c.3-.23.57-.09.87.39-.22.1-.53-.02-.87-.39Z"/>
</svg>