<svg id="visual" viewBox="0 0 960 540" width="960" height="540" xmlns="http://www.w3.org/2000/svg" xmlns:xlink="http://www.w3.org/1999/xlink" version="1.1"><g stroke-width="1" stroke-linejoin="bevel"><path d="M427.7 237L497.3 173L434.7 191Z" fill="#a72db2" stroke="#a72db2"></path><path d="M427.7 237L547.3 294L497.3 173Z" fill="#623492" stroke="#623492"></path><path d="M394.7 341L568.3 323L547.3 294Z" fill="#44317e" stroke="#44317e"></path><path d="M621 101L520.3 74L497.3 173Z" fill="#8333a4" stroke="#8333a4"></path><path d="M328 231L394.7 341L427.7 237Z" fill="#9531ab" stroke="#9531ab"></path><path d="M427.7 237L394.7 341L547.3 294Z" fill="#72349c" stroke="#72349c"></path><path d="M434.7 191L328 231L427.7 237Z" fill="#a72db2" stroke="#a72db2"></path><path d="M659 192L497.3 173L547.3 294Z" fill="#623492" stroke="#623492"></path><path d="M497.3 173L414.7 65L434.7 191Z" fill="#ba27b7" stroke="#ba27b7"></path><path d="M434.7 191L325 147L328 231Z" fill="#533389" stroke="#533389"></path><path d="M520.3 74L414.7 65L497.3 173Z" fill="#e006bf" stroke="#e006bf"></path><path d="M414.7 65L325 147L434.7 191Z" fill="#372e73" stroke="#372e73"></path><path d="M650 300L659 192L547.3 294Z" fill="#9531ab" stroke="#9531ab"></path><path d="M659 192L621 101L497.3 173Z" fill="#372e73" stroke="#372e73"></path><path d="M568.3 323L650 300L547.3 294Z" fill="#a72db2" stroke="#a72db2"></path><path d="M569.3 467L614 357L568.3 323Z" fill="#372e73" stroke="#372e73"></path><path d="M568.3 323L614 357L650 300Z" fill="#623492" stroke="#623492"></path><path d="M246.3 207L303 322L328 231Z" fill="#a72db2" stroke="#a72db2"></path><path d="M328 231L303 322L394.7 341Z" fill="#72349c" stroke="#72349c"></path><path d="M414.7 65L319 84L325 147Z" fill="#9531ab" stroke="#9531ab"></path><path d="M325 147L246.3 207L328 231Z" fill="#72349c" stroke="#72349c"></path><path d="M533.3 0L460.7 0L520.3 74Z" fill="#72349c" stroke="#72349c"></path><path d="M520.3 74L460.7 0L414.7 65Z" fill="#8333a4" stroke="#8333a4"></path><path d="M414.7 65L296 0L319 84Z" fill="#ba27b7" stroke="#ba27b7"></path><path d="M621 101L533.3 0L520.3 74Z" fill="#a72db2" stroke="#a72db2"></path><path d="M176.3 76L246.3 207L325 147Z" fill="#623492" stroke="#623492"></path><path d="M309 412L438.7 453L394.7 341Z" fill="#cd1cbc" stroke="#cd1cbc"></path><path d="M394.7 341L438.7 453L568.3 323Z" fill="#372e73" stroke="#372e73"></path><path d="M650 300L716.7 214L659 192Z" fill="#372e73" stroke="#372e73"></path><path d="M659 192L763.7 103L621 101Z" fill="#72349c" stroke="#72349c"></path><path d="M773.7 252L716.7 214L650 300Z" fill="#ba27b7" stroke="#ba27b7"></path><path d="M303 322L309 412L394.7 341Z" fill="#cd1cbc" stroke="#cd1cbc"></path><path d="M214.3 397L309 412L303 322Z" fill="#623492" stroke="#623492"></path><path d="M438.7 453L569.3 467L568.3 323Z" fill="#8333a4" stroke="#8333a4"></path><path d="M781.7 386L773.7 252L650 300Z" fill="#372e73" stroke="#372e73"></path><path d="M569.3 467L604 457L614 357Z" fill="#372e73" stroke="#372e73"></path><path d="M763.7 103L646 0L621 101Z" fill="#533389" stroke="#533389"></path><path d="M621 101L646 0L533.3 0Z" fill="#533389" stroke="#533389"></path><path d="M460.7 0L296 0L414.7 65Z" fill="#e006bf" stroke="#e006bf"></path><path d="M319 84L176.3 76L325 147Z" fill="#623492" stroke="#623492"></path><path d="M713.7 430L650 300L614 357Z" fill="#623492" stroke="#623492"></path><path d="M716.7 214L763.7 103L659 192Z" fill="#44317e" stroke="#44317e"></path><path d="M74.7 241L189.3 307L246.3 207Z" fill="#ba27b7" stroke="#ba27b7"></path><path d="M246.3 207L189.3 307L303 322Z" fill="#372e73" stroke="#372e73"></path><path d="M773.7 252L763.7 103L716.7 214Z" fill="#372e73" stroke="#372e73"></path><path d="M644 540L713.7 430L604 457Z" fill="#44317e" stroke="#44317e"></path><path d="M604 457L713.7 430L614 357Z" fill="#cd1cbc" stroke="#cd1cbc"></path><path d="M189.3 307L214.3 397L303 322Z" fill="#e006bf" stroke="#e006bf"></path><path d="M313 540L465.7 540L438.7 453Z" fill="#cd1cbc" stroke="#cd1cbc"></path><path d="M296 0L250.3 0L319 84Z" fill="#ba27b7" stroke="#ba27b7"></path><path d="M438.7 453L465.7 540L569.3 467Z" fill="#623492" stroke="#623492"></path><path d="M569.3 467L644 540L604 457Z" fill="#9531ab" stroke="#9531ab"></path><path d="M313 540L438.7 453L309 412Z" fill="#44317e" stroke="#44317e"></path><path d="M465.7 540L542.3 540L569.3 467Z" fill="#e006bf" stroke="#e006bf"></path><path d="M250.3 0L176.3 76L319 84Z" fill="#44317e" stroke="#44317e"></path><path d="M214.3 397L234.3 467L309 412Z" fill="#ba27b7" stroke="#ba27b7"></path><path d="M713.7 430L781.7 386L650 300Z" fill="#8333a4" stroke="#8333a4"></path><path d="M234.3 467L313 540L309 412Z" fill="#a72db2" stroke="#a72db2"></path><path d="M542.3 540L644 540L569.3 467Z" fill="#ba27b7" stroke="#ba27b7"></path><path d="M713.7 430L853.3 429L781.7 386Z" fill="#533389" stroke="#533389"></path><path d="M847.3 84L761.7 0L763.7 103Z" fill="#cd1cbc" stroke="#cd1cbc"></path><path d="M763.7 103L761.7 0L646 0Z" fill="#8333a4" stroke="#8333a4"></path><path d="M858.3 149L763.7 103L773.7 252Z" fill="#533389" stroke="#533389"></path><path d="M189.3 307L126.7 340L214.3 397Z" fill="#44317e" stroke="#44317e"></path><path d="M104.7 540L203.3 540L234.3 467Z" fill="#533389" stroke="#533389"></path><path d="M74.7 241L126.7 340L189.3 307Z" fill="#8333a4" stroke="#8333a4"></path><path d="M889.3 287L858.3 149L773.7 252Z" fill="#cd1cbc" stroke="#cd1cbc"></path><path d="M858.3 149L847.3 84L763.7 103Z" fill="#9531ab" stroke="#9531ab"></path><path d="M176.3 76L77.7 185L246.3 207Z" fill="#a72db2" stroke="#a72db2"></path><path d="M853.3 429L854.3 361L781.7 386Z" fill="#ba27b7" stroke="#ba27b7"></path><path d="M781.7 386L854.3 361L773.7 252Z" fill="#cd1cbc" stroke="#cd1cbc"></path><path d="M134.7 0L105.7 66L176.3 76Z" fill="#cd1cbc" stroke="#cd1cbc"></path><path d="M176.3 76L105.7 66L77.7 185Z" fill="#623492" stroke="#623492"></path><path d="M77.7 185L74.7 241L246.3 207Z" fill="#a72db2" stroke="#a72db2"></path><path d="M250.3 0L134.7 0L176.3 76Z" fill="#8333a4" stroke="#8333a4"></path><path d="M854.3 361L889.3 287L773.7 252Z" fill="#9531ab" stroke="#9531ab"></path><path d="M960 85L867.3 0L847.3 84Z" fill="#e006bf" stroke="#e006bf"></path><path d="M80.7 425L234.3 467L214.3 397Z" fill="#9531ab" stroke="#9531ab"></path><path d="M234.3 467L203.3 540L313 540Z" fill="#a72db2" stroke="#a72db2"></path><path d="M80.7 425L214.3 397L126.7 340Z" fill="#72349c" stroke="#72349c"></path><path d="M644 540L755.7 540L713.7 430Z" fill="#9531ab" stroke="#9531ab"></path><path d="M755.7 540L853.3 429L713.7 430Z" fill="#cd1cbc" stroke="#cd1cbc"></path><path d="M960 323L960 283L889.3 287Z" fill="#44317e" stroke="#44317e"></path><path d="M0 373L80.7 425L126.7 340Z" fill="#533389" stroke="#533389"></path><path d="M960 85L847.3 84L858.3 149Z" fill="#44317e" stroke="#44317e"></path><path d="M847.3 84L867.3 0L761.7 0Z" fill="#623492" stroke="#623492"></path><path d="M0 78L77.7 185L105.7 66Z" fill="#e006bf" stroke="#e006bf"></path><path d="M0 78L0 189L77.7 185Z" fill="#a72db2" stroke="#a72db2"></path><path d="M77.7 185L0 189L74.7 241Z" fill="#623492" stroke="#623492"></path><path d="M74.7 241L0 268L126.7 340Z" fill="#e006bf" stroke="#e006bf"></path><path d="M0 189L0 268L74.7 241Z" fill="#72349c" stroke="#72349c"></path><path d="M755.7 540L842.3 540L853.3 429Z" fill="#44317e" stroke="#44317e"></path><path d="M960 323L889.3 287L854.3 361Z" fill="#a72db2" stroke="#a72db2"></path><path d="M960 323L854.3 361L960 455Z" fill="#e006bf" stroke="#e006bf"></path><path d="M889.3 287L960 142L858.3 149Z" fill="#72349c" stroke="#72349c"></path><path d="M960 283L960 142L889.3 287Z" fill="#44317e" stroke="#44317e"></path><path d="M80.7 425L104.7 540L234.3 467Z" fill="#a72db2" stroke="#a72db2"></path><path d="M0 540L104.7 540L80.7 425Z" fill="#623492" stroke="#623492"></path><path d="M960 455L854.3 361L853.3 429Z" fill="#72349c" stroke="#72349c"></path><path d="M0 0L0 78L105.7 66Z" fill="#372e73" stroke="#372e73"></path><path d="M0 268L0 373L126.7 340Z" fill="#ba27b7" stroke="#ba27b7"></path><path d="M960 142L960 85L858.3 149Z" fill="#8333a4" stroke="#8333a4"></path><path d="M0 373L0 427L80.7 425Z" fill="#72349c" stroke="#72349c"></path><path d="M134.7 0L0 0L105.7 66Z" fill="#533389" stroke="#533389"></path><path d="M960 85L960 0L867.3 0Z" fill="#8333a4" stroke="#8333a4"></path><path d="M842.3 540L960 455L853.3 429Z" fill="#a72db2" stroke="#a72db2"></path><path d="M0 427L0 540L80.7 425Z" fill="#cd1cbc" stroke="#cd1cbc"></path><path d="M842.3 540L960 540L960 455Z" fill="#a72db2" stroke="#a72db2"></path></g></svg>