<svg id="visual" viewBox="0 0 960 540" width="960" height="540" xmlns="http://www.w3.org/2000/svg" xmlns:xlink="http://www.w3.org/1999/xlink" version="1.1"><rect x="0" y="0" width="960" height="540" fill="#3d3189"></rect><path d="M0 327L22.8 339.2C45.7 351.3 91.3 375.7 137 387.2C182.7 398.7 228.3 397.3 274 388.5C319.7 379.7 365.3 363.3 411.2 351.3C457 339.3 503 331.7 548.8 335.7C594.7 339.7 640.3 355.3 686 356.8C731.7 358.3 777.3 345.7 823 346.5C868.7 347.3 914.3 361.7 937.2 368.8L960 376L960 541L937.2 541C914.3 541 868.7 541 823 541C777.3 541 731.7 541 686 541C640.3 541 594.7 541 548.8 541C503 541 457 541 411.2 541C365.3 541 319.7 541 274 541C228.3 541 182.7 541 137 541C91.3 541 45.7 541 22.8 541L0 541Z" fill="#542165"></path><path d="M0 431L22.8 427.3C45.7 423.7 91.3 416.3 137 409.2C182.7 402 228.3 395 274 390.8C319.7 386.7 365.3 385.3 411.2 384.8C457 384.3 503 384.7 548.8 390.2C594.7 395.7 640.3 406.3 686 409.5C731.7 412.7 777.3 408.3 823 401.8C868.7 395.3 914.3 386.7 937.2 382.3L960 378L960 541L937.2 541C914.3 541 868.7 541 823 541C777.3 541 731.7 541 686 541C640.3 541 594.7 541 548.8 541C503 541 457 541 411.2 541C365.3 541 319.7 541 274 541C228.3 541 182.7 541 137 541C91.3 541 45.7 541 22.8 541L0 541Z" fill="#782773"></path><path d="M0 413L22.8 412C45.7 411 91.3 409 137 405.8C182.7 402.7 228.3 398.3 274 396.2C319.7 394 365.3 394 411.2 395C457 396 503 398 548.8 406.2C594.7 414.3 640.3 428.7 686 436C731.7 443.3 777.3 443.7 823 446.2C868.7 448.7 914.3 453.3 937.2 455.7L960 458L960 541L937.2 541C914.3 541 868.7 541 823 541C777.3 541 731.7 541 686 541C640.3 541 594.7 541 548.8 541C503 541 457 541 411.2 541C365.3 541 319.7 541 274 541C228.3 541 182.7 541 137 541C91.3 541 45.7 541 22.8 541L0 541Z" fill="#9e2d7d"></path><path d="M0 479L22.8 473.3C45.7 467.7 91.3 456.3 137 454.8C182.7 453.3 228.3 461.7 274 465C319.7 468.3 365.3 466.7 411.2 465.2C457 463.7 503 462.3 548.8 458.2C594.7 454 640.3 447 686 444.5C731.7 442 777.3 444 823 448C868.7 452 914.3 458 937.2 461L960 464L960 541L937.2 541C914.3 541 868.7 541 823 541C777.3 541 731.7 541 686 541C640.3 541 594.7 541 548.8 541C503 541 457 541 411.2 541C365.3 541 319.7 541 274 541C228.3 541 182.7 541 137 541C91.3 541 45.7 541 22.8 541L0 541Z" fill="#c33483"></path><path d="M0 497L22.8 494C45.7 491 91.3 485 137 481.7C182.7 478.3 228.3 477.7 274 477.3C319.7 477 365.3 477 411.2 477.8C457 478.7 503 480.3 548.8 483.7C594.7 487 640.3 492 686 495.5C731.7 499 777.3 501 823 499C868.7 497 914.3 491 937.2 488L960 485L960 541L937.2 541C914.3 541 868.7 541 823 541C777.3 541 731.7 541 686 541C640.3 541 594.7 541 548.8 541C503 541 457 541 411.2 541C365.3 541 319.7 541 274 541C228.3 541 182.7 541 137 541C91.3 541 45.7 541 22.8 541L0 541Z" fill="#e83e85"></path></svg>